<svg width="20" height="20" viewBox="0 0 20 20" xmlns="http://www.w3.org/2000/svg" xmlns:xlink="http://www.w3.org/1999/xlink">
    <defs>
        <filter x="-60%" y="-60%" width="220%" height="220%" id="a">
            <feOffset dy="2" in="SourceAlpha" result="shadowOffsetOuter1"/>
            <feGaussianBlur stdDeviation="2" in="shadowOffsetOuter1" result="shadowBlurOuter1"/>
            <feColorMatrix values="0 0 0 0 0 0 0 0 0 0 0 0 0 0 0 0 0 0 0.2 0" in="shadowBlurOuter1" result="shadowMatrixOuter1"/>
            <feMerge>
                <feMergeNode in="shadowMatrixOuter1"/>
                <feMergeNode in="SourceGraphic"/>
            </feMerge>
        </filter>
        <path id="b" d="M0 0h20v20H0z"/>
    </defs>
    <g filter="url(#a)" fill="none" fill-rule="evenodd">
        <path d="M.766 6.159a9.7 9.7 0 0 0-.308.84h1.57L.766 6.16zM19.229 13.855c.116-.279.221-.564.312-.855h-1.596l1.284.855zM2.903 17.044A9.999 9.999 0 0 0 7 19.542v-5.229l-4.097 2.731zM7 .458a9.988 9.988 0 0 0-4.107 2.508L7 5.704V.458zM19.541 7a9.853 9.853 0 0 0-.307-.842L17.972 7h1.57zM13 19.542a9.996 9.996 0 0 0 4.097-2.498L13 14.313v5.229zM.458 13c.091.291.196.576.313.855L2.054 13H.458zM17.107 2.966A9.992 9.992 0 0 0 13 .458v5.246l4.107-2.738z" fill="#01247D"/>
        <path d="M19.844 11.75H11.75v8.094c.425-.076.844-.175 1.25-.302v-5.229l4.096 2.73c.464-.465.88-.978 1.245-1.53L14.562 13h2.375l2.06 1.37c.081-.17.16-.341.232-.515L17.945 13h1.596c.128-.407.228-.823.303-1.25M7 .458v5.246L2.893 2.966A9.97 9.97 0 0 0 1.68 4.455l3.826 2.544H3.13L1.02 5.597c-.09.184-.175.37-.254.562l1.262.84H.458A9.968 9.968 0 0 0 .156 8.25H8.25V.155A9.931 9.931 0 0 0 7 .458M.156 11.75c.075.427.175.843.302 1.25h1.596l-1.283.855c.244.585.543 1.139.888 1.661L5.441 13H7v.543l-4.542 3.02c.144.165.292.326.445.48L7 14.314v5.229c.406.127.823.226 1.25.302V11.75H.157zM19.541 7h-1.569l1.262-.842a9.984 9.984 0 0 0-.918-1.711l-3.838 2.552H13v-.596l4.512-3a10.748 10.748 0 0 0-.405-.437L13 5.704V.458a9.994 9.994 0 0 0-1.25-.303V8.25h8.094A9.89 9.89 0 0 0 19.54 7" fill="#FAFAFA"/>
        <g>
            <mask id="c" fill="#fff">
                <use xlink:href="#b"/>
            </mask>
            <path d="M19.844 8.25H11.75V.156C11.181.055 10.597 0 10 0S8.818.055 8.25.156V8.25H.157A9.989 9.989 0 0 0 0 10c0 .597.055 1.181.156 1.75H8.25v8.094c.567.1 1.152.156 1.749.156.597 0 1.181-.055 1.75-.156V11.75h8.094a9.941 9.941 0 0 0 0-3.5" fill="#CF142B" mask="url(#c)"/>
        </g>
        <path d="m14.562 13 3.78 2.513c.242-.365.46-.747.655-1.143L16.937 13h-2.375zM13 7h1.478l3.838-2.553a10.022 10.022 0 0 0-.804-1.045l-4.512 3V7zM7 13H5.44L1.66 15.516c.243.367.51.716.8 1.047l4.54-3.02V13zM5.505 7 1.68 4.454a9.862 9.862 0 0 0-.658 1.142L3.13 7h2.374z" fill="#CF142B"/>
    </g>
</svg>
