<svg width="20" height="20" viewBox="0 0 20 20" xmlns="http://www.w3.org/2000/svg" xmlns:xlink="http://www.w3.org/1999/xlink">
    <defs>
        <filter x="-60%" y="-60%" width="220%" height="220%" id="a">
            <feOffset dy="2" in="SourceAlpha" result="shadowOffsetOuter1"/>
            <feGaussianBlur stdDeviation="2" in="shadowOffsetOuter1" result="shadowBlurOuter1"/>
            <feColorMatrix values="0 0 0 0 0 0 0 0 0 0 0 0 0 0 0 0 0 0 0.2 0" in="shadowBlurOuter1" result="shadowMatrixOuter1"/>
            <feMerge>
                <feMergeNode in="shadowMatrixOuter1"/>
                <feMergeNode in="SourceGraphic"/>
            </feMerge>
        </filter>
        <path id="b" d="M0 0h20.002v20H0z"/>
    </defs>
    <g filter="url(#a)" fill="none" fill-rule="evenodd">
        <mask id="c" fill="#fff">
            <use xlink:href="#b"/>
        </mask>
        <path d="M20.002 10c0 5.523-4.478 10-10 10C4.477 20 0 15.523 0 10S4.478 0 10 0s10 4.477 10 10" fill="#009531" mask="url(#c)"/>
        <path d="M7.74 7.373a.219.219 0 0 0-.03-.002.554.554 0 0 0-.107.133.295.295 0 0 0-.053.2c.011.05.046.096.094.117.046.011.094-.006.133-.032a.271.271 0 0 0 .114-.199c-.047.009-.073.054-.106.083-.03.027-.075.051-.112.027-.035-.02-.037-.063-.033-.098.01-.086.09-.143.1-.23M5.072 6.59a.601.601 0 0 1-.014.223l-.004.01a.896.896 0 0 1-.029.091.761.761 0 0 0 .116-.272c.005-.059.01-.132-.039-.174-.038-.017-.082.005-.11.033-.027.03-.064.063-.055.108.043.046.085-.032.135-.019m2.726.141a.148.148 0 0 1 .053-.069c.033.048-.004.1-.021.147l-.02-.004a.126.126 0 0 1-.012-.074m.063.294c.03-.002.065-.003.084-.03.011-.033-.007-.064-.012-.093.023-.06.048-.118.06-.181.01-.057.01-.124-.03-.17-.038-.045-.108-.05-.157-.025a.25.25 0 0 0-.118.136c-.03.1-.023.218.06.29a1.85 1.85 0 0 1-.441.414c-.048.035-.102.062-.141.105l-.002.027c.065.005.123-.03.182-.056.201-.097.392-.228.515-.417m-1.833-.28c.048.011.09-.022.116-.058.024.012.037.038.054.059.019.01.043.008.063.003.036-.011.048-.052.057-.084.003-.034.009-.082-.029-.099-.012.037-.012.117-.071.104-.051-.031-.05-.099-.05-.15H6.15c-.02.048-.034.106-.081.137-.018.01-.047.008-.054-.014-.021-.035-.013-.078-.017-.116l-.015-.034a.054.054 0 0 1-.015-.004.204.204 0 0 0-.035.142c.017.047.041.103.095.115M4.932 7.983c.049-.01.082-.054.106-.092a.85.85 0 0 0 .098-.333c.005-.043.013-.085.019-.13l.004-.005c.017-.096.043-.191.085-.278a.428.428 0 0 1 .02-.005c.013.04.013.082.009.124-.018.07-.022.143-.025.214-.006.15.012.314.107.435.067.085.178.12.283.117.015.186.043.372.06.557l.004.008c.004.065.014.129.018.193.012.082.004.166.02.248h.02a.471.471 0 0 0 .071-.2c.01-.18-.019-.358-.024-.54-.006-.121-.02-.243-.026-.367a.516.516 0 0 0 .114-.132c.019-.034.037-.068.061-.1l.022-.001c.024.059.033.125.075.175.056.08.165.108.256.078a.401.401 0 0 0 .207-.142c.064-.093.057-.212.048-.318-.017-.14-.058-.274-.092-.408.024-.004.058-.002.071-.028.018-.026.005-.058-.002-.086a.53.53 0 0 0-.067-.106c-.036-.04-.066-.09-.118-.115-.04.018-.06.06-.089.09-.02.027-.05.052-.05.088.009.06.038.113.059.168.059.157.108.32.128.487.004.037-.012.085-.052.096-.067.01-.14.006-.193-.036a.265.265 0 0 1-.087-.148c-.032-.13-.072-.263-.056-.398a.37.37 0 0 0-.127-.348c-.019-.02-.033.005-.039.023a.502.502 0 0 0-.017.303c.028.127.054.255.076.385a.364.364 0 0 1-.144.242c-.002-.028-.005-.057-.01-.086-.003-.033-.005-.067-.012-.1-.017-.176-.037-.355-.05-.532a.134.134 0 0 0 .07-.076c0-.106-.054-.2-.1-.292-.023-.04-.042-.087-.088-.105a.31.31 0 0 0-.095.144c-.014.049.022.09.037.136-.011.099.037.191.047.288.011.103.013.209.026.312.005.112.017.224.027.337a.181.181 0 0 1-.1-.029c-.062-.038-.088-.108-.113-.17l-.02-.071a.56.56 0 0 1-.01-.191c.006-.082.039-.158.058-.236.01-.053.02-.108.01-.16-.008-.042-.049-.078-.092-.07-.055.01-.096.057-.126.102-.06.088-.104.185-.133.286l-.003.008c-.045.156-.026.325-.089.477-.014.028-.034.066-.07.061-.048-.018-.07-.07-.093-.113a1.436 1.436 0 0 1-.075-.39c-.01-.092-.003-.186-.008-.277h-.027a.818.818 0 0 0-.053.291l-.006.007c0 .219.037.44.133.638.026.05.071.108.132.096m10.34-.112c-.028-.292-.084-.582-.072-.877.025.02.054.038.09.038a.203.203 0 0 0-.016-.112c-.056-.12-.11-.24-.164-.362-.014-.029-.027-.062-.054-.082-.027 0-.042.022-.059.04-.031.043-.067.083-.082.136-.015.055.015.108.017.164.012.127.04.256.047.383l.018.166.023.203c.044.395.088.79.115 1.186.011.194.015.395-.054.582a.977.977 0 0 1-.296.405c-.1.088-.215.157-.322.236-.033.027-.074.052-.086.095.08.013.16-.012.238-.03a.85.85 0 0 0 .465-.277c.113-.137.178-.306.21-.48l.005-.006c.027-.161.043-.325.04-.49a11.25 11.25 0 0 0-.063-.918m-1.309 2.043c-.01-.062.042-.106.057-.163l-.013-.029a.253.253 0 0 0-.183-.014c-.04.01-.033.059-.03.092.029.021.083.032.083.078.004.08-.118.092-.12.17-.005.044.054.05.086.043a.477.477 0 0 0 .225-.108l-.001-.065c-.035-.004-.069-.004-.104-.004m-.317 3.464c-.11.01-.222.004-.33.008a.107.107 0 0 0-.09-.064c-.025.006-.045.022-.064.036l-.004.03c-.11.012-.222.009-.33.011a.813.813 0 0 0-.063-.082l-.001-.096c.297-.007.596-.017.894-.025-.014.06-.032.122-.012.182m.277-.38c-.063-.057-.154-.065-.236-.066-.311 0-.618.011-.925.014 0-.03-.003-.064 0-.096.02-.04.066-.076.057-.125-.017-.05-.052-.09-.083-.13h-.048c-.033.04-.065.082-.082.132-.013.057.038.097.065.139 0 .026 0 .054.002.08-1.136.014-2.273.014-3.41.008-.215.003-.43-.005-.645-.004-.577-.002-1.153-.009-1.73-.015-.29 0-.58-.01-.869-.01a.616.616 0 0 0 .318.239c.208.074.432.092.653.105.237.014.475.004.712.014.755.007 1.51.003 2.263-.008.69-.006 1.38-.02 2.07-.036.217-.005.432-.012.648-.012v.093a.903.903 0 0 0-.066.096c.001.07.054.129.103.175h.021a.692.692 0 0 0 .073-.103c.11 0 .223-.01.336-.007.014.036.049.056.084.066.04-.01.074-.034.081-.075.119-.003.24-.004.36-.004.024.03.052.06.09.075.058.02.124.004.165-.042.063-.073.073-.173.071-.266 0-.083-.016-.176-.078-.237M4.981 9.812c-.05.02-.082-.03-.095-.07-.037-.124-.005-.253.033-.37.034-.083.016-.174.015-.26l-.025.001c-.032.076-.042.16-.075.234a.8.8 0 0 0-.057.325c.002.08-.003.164.02.242.018.056.07.11.134.107.078.001.136-.07.157-.14.016-.06.03-.128.004-.188-.056.02-.067.086-.111.12m.35-1.388c.059-.025.123-.038.181-.063a.46.46 0 0 0 0-.133c-.018 0-.034-.003-.05.002-.12.038-.24.087-.346.156a1.265 1.265 0 0 0-.376.352c.056-.025.102-.07.154-.1.14-.082.286-.153.437-.214m.91.12c-.048-.04-.026-.111-.015-.164l.027-.014c.031.01.066.016.09.04.037.03.063.068.09.104-.059.026-.126.053-.191.034m.455 1.219a.76.76 0 0 0 .228-.37c.053-.187.053-.385.04-.58-.003-.082-.003-.166-.01-.249-.003-.019.004-.035.009-.053l.024.001c.022.074.097.117.17.123a.375.375 0 0 0 .222-.056c.034-.021.058-.055.086-.084A.025.025 0 0 1 7.5 8.49c.024.027.042.06.074.079.058.038.13.043.196.033.047-.013.092-.045.107-.093a.713.713 0 0 0 .033-.264c-.007-.056-.007-.115-.033-.167-.044.003-.08.034-.107.067-.017.017.004.039.008.058a.27.27 0 0 1 .012.135c-.002.045-.028.095-.076.105-.047.003-.086-.035-.11-.074-.046-.074-.044-.165-.058-.251l-.024-.003c-.033.085-.054.176-.111.25-.037.049-.087.099-.151.105-.045.006-.087-.027-.103-.069-.035-.07-.022-.149-.024-.222.003-.03-.024-.065-.053-.045-.056.033-.093.09-.149.124-.01-.167-.02-.33-.033-.496-.009-.199-.031-.397-.042-.595.02.016.039.04.067.036.024 0 .038-.022.049-.041a.212.212 0 0 0-.01-.136c-.046-.103-.08-.212-.117-.318-.021-.057-.035-.117-.067-.168-.04.005-.068.04-.095.065a.323.323 0 0 0-.08.114c-.012.044.012.087.03.126l-.001.079c-.002.09.008.18.02.27l.01.082.003.008c.003.089.023.175.029.264l.004.006c.028.268.066.535.074.804-.05.025-.095.058-.144.082a.799.799 0 0 0-.195-.247c-.045-.04-.103-.077-.167-.067-.063.013-.109.064-.143.115-.043.066-.09.138-.09.221 0 .08.005.16.004.24.01.023.017.05.041.063.061.031.135.053.205.032.08-.023.16-.049.239-.075.003.052.009.11-.012.16-.014.032-.036.058-.057.081a1.446 1.446 0 0 1-.259.23.777.777 0 0 1-.323.143c-.082.013-.172-.007-.227-.07-.112-.126-.139-.304-.125-.466a.509.509 0 0 0 .008-.159c-.04.025-.05.072-.063.113a1.182 1.182 0 0 0-.043.297.671.671 0 0 0 .046.309c.06.118.168.22.302.237.166.023.324-.051.464-.128.186-.106.363-.257.429-.466l.003-.008c.029-.108.015-.221.012-.333.037-.022.075-.044.113-.063.004.125-.003.248 0 .372a.96.96 0 0 1-.024.26l-.003.009a.51.51 0 0 1-.193.27c-.143.12-.316.205-.495.259a.988.988 0 0 1-.318.048.404.404 0 0 1-.31-.129c-.093-.102-.118-.244-.134-.377-.001-.066-.006-.132 0-.199a.492.492 0 0 0 .005-.292c-.08.142-.102.307-.117.466-.012.192.01.386.09.562a.345.345 0 0 0 .114.145c.095.07.215.092.33.094.2.003.397-.047.583-.115.135-.053.273-.11.38-.208m7.351-1.571c-.002-.1-.016-.197-.016-.296.117.167.237.333.353.5.02.03.02.064.028.097.017.116.033.233.045.351.01.14.003.28.002.419.004.024-.006.074.03.068.034-.055.044-.118.058-.178.01-.072.005-.145.013-.217-.01-.11-.008-.224-.019-.335.127.168.25.34.365.518.039.06.067.127.11.185l.02-.001a.899.899 0 0 0-.013-.266c-.055-.191-.183-.347-.29-.509-.073-.11-.152-.214-.22-.326-.015-.128-.024-.257-.035-.385a46.605 46.605 0 0 1-.049-.565c0-.055-.003-.11-.005-.166.015.007.026.015.04.022.009-.002.023-.01.031-.012A.14.14 0 0 0 14.5 7c-.033-.114-.06-.232-.093-.348-.021-.062-.034-.126-.074-.176-.022.002-.045.009-.06.028a.64.64 0 0 0-.096.166c-.021.044.01.085.01.13.006.235.033.468.062.704.021.142.049.285.068.43-.105-.15-.213-.295-.317-.44-.004-.156-.022-.309-.028-.463a.262.262 0 0 0 .07.027c0-.026 0-.05-.007-.072a7.355 7.355 0 0 0-.158-.438c-.01-.021-.023-.058-.052-.047a.388.388 0 0 0-.114.197c-.018.062.007.124.034.178.004.097.022.192.027.289-.06-.075-.11-.157-.166-.235h.057l.02-.027c-.006-.022-.01-.044-.028-.059-.089-.09-.194-.164-.27-.264-.026-.032-.066-.069-.11-.047a2.461 2.461 0 0 0-.006.05c.004.075.006.152-.006.226-.013.085.051.152.1.212.15.183.292.376.442.56.013.062.009.128.019.19.004.097.017.19.019.286l.005.007c.02.34.053.679.035 1.02a.376.376 0 0 1-.063.19.19.19 0 0 1-.124.073c-.057.009-.112-.025-.153-.064-.076-.07-.115-.169-.195-.232a.086.086 0 0 0-.113 0c-.055.048-.09.114-.128.177-.09.148-.171.301-.245.457a.326.326 0 0 1-.088.125.079.079 0 0 1-.106-.002c-.039-.035-.056-.088-.08-.133.026.022.057.041.092.038.058-.002.1-.051.127-.096a1.05 1.05 0 0 0 .121-.386c.023-.197-.024-.394-.058-.587-.01-.124-.032-.25-.04-.377l-.005-.006c-.02-.193-.045-.385-.068-.579-.012-.145-.035-.29-.042-.434.054.003.122-.01.146-.065.032-.055.007-.12-.024-.167a1.443 1.443 0 0 1-.149-.336c-.022-.068-.038-.138-.073-.2-.022-.038-.06-.068-.105-.07a.138.138 0 0 0-.116.057.537.537 0 0 0-.12.236.816.816 0 0 0 .034.345c.029.104.038.21.051.317.037.27.071.543.107.812.021.174.044.349.067.521.026.246.088.49.059.738-.011.053-.024.103-.036.154-.006-.074-.027-.148-.028-.223-.005-.088.007-.178-.012-.265l-.02-.003c-.034.071-.045.148-.063.224-.03.155-.065.318-.019.473.03.105.124.167.202.234.044.032.088.07.143.07.042 0 .071-.031.095-.06.095-.126.171-.268.236-.412.038-.084.076-.173.14-.244.017-.017.034-.04.062-.035.038.048.067.102.111.143.084.09.206.137.33.141.107.003.202-.064.263-.15.086-.127.096-.287.1-.435l-.005-.007c-.01-.282-.027-.565-.043-.848m-.52-.036c-.126.12-.278.211-.407.329-.026.02-.033.055-.031.088.05-.003.087-.035.124-.063.101-.08.21-.147.323-.212.039-.023.087-.038.118-.075a.265.265 0 0 0-.006-.148c-.055 0-.086.05-.12.08m-1.63-1.245c.025.17.047.34.07.51.03.259.057.52.076.782.02.26.026.52.044.78a2.2 2.2 0 0 1 .008.305.626.626 0 0 1-.179.381c-.124.136-.26.27-.428.355-.084.045-.186.048-.265.105v.023c.06.023.124.012.187.01.113-.01.232-.012.332-.067.123-.074.209-.192.304-.299.12-.132.17-.313.19-.488a3.17 3.17 0 0 0 .01-.518 8.965 8.965 0 0 0-.056-.836c-.03-.293-.074-.586-.06-.88a.107.107 0 0 0 .09.024.174.174 0 0 0-.007-.087c-.027-.08-.045-.163-.07-.245l-.018-.072-.003-.007a.716.716 0 0 0-.053-.149c-.018.004-.04 0-.05.02-.038.049-.086.088-.128.135-.035.038-.027.094-.02.14.013.025.023.051.027.078M7.424 9.29c.007-.003.022-.008.028-.012A.41.41 0 0 0 7.53 9.1c.018-.065.004-.132-.007-.197-.008-.07-.13-.111-.163-.036-.022.042-.04.097-.01.139.027.03.073.014.107.015.001.05.006.102-.005.152-.01.04-.026.076-.027.117m4.18-1.99c-.024.042-.025.09-.041.134-.006.018-.022.018-.037.017-.016-.033-.032-.068-.044-.104-.005 0-.015-.003-.018-.004a.243.243 0 0 0 .026.2c.053.01.087-.036.127-.061.03.015.057.039.088.055.026.009.051-.01.073-.023l.012-.035a.534.534 0 0 0-.012-.212.157.157 0 0 0-.024.004l-.015.036c-.016.048-.013.116-.067.135-.033-.034-.042-.08-.05-.124-.005-.005-.013-.013-.019-.017m1.425.422c.015 0 .03.003.044.002.023.001.03-.026.042-.04a.81.81 0 0 1 .137.226c.013.03.026.062.05.083.034.006.037-.04.042-.064.006-.112-.003-.226 0-.34.01-.025.013-.054.036-.071.04-.003.068.032.108.024 0-.022.011-.047-.002-.068a.793.793 0 0 1-.048-.099l-.034-.016a.211.211 0 0 0-.118.132c-.008.075 0 .15.01.225a.216.216 0 0 1-.012.105c-.034-.039-.048-.091-.07-.138-.032-.067-.064-.134-.115-.188-.02.001-.044-.004-.06.013-.022.018-.022.046-.022.07a.221.221 0 0 1 0 .104.207.207 0 0 1 .012.04m.551 1.18c.049-.006.07-.058.09-.099.03-.11-.016-.228-.092-.31-.018-.023-.048-.034-.075-.023a.128.128 0 0 0-.062.11c.053.038.113.074.14.136.03.06-.017.125 0 .187m1.147-1.697c.011.055-.002.112.018.167h.022a.531.531 0 0 0 .043-.235c-.006-.147-.03-.302-.117-.426-.05-.004-.068.052-.087.09-.017.03-.004.066.014.094.061.093.091.2.107.31m-5.086 1.01c-.01.003-.02.003-.029.003a.312.312 0 0 1-.06-.101c-.012-.027-.018-.065-.052-.073a.389.389 0 0 0-.018.135l-.023.063c-.013 0-.026 0-.04.002-.037-.05-.05-.112-.063-.17l-.015-.025c-.024.087-.03.189.02.268.018.031.058.056.094.04.04-.013.048-.061.066-.095h.026c.022.021.044.052.08.048.054.004.093-.048.103-.096a.36.36 0 0 0-.049-.232c-.031.049-.013.108-.018.162l-.022.072m.506-.009c.073.007.128.053.188.085a.25.25 0 0 1 .06.045c-.074.04-.16.047-.242.066-.013-.055-.016-.113-.024-.17a.43.43 0 0 0 .018-.026m-1.979.173c.044.105.099.2.148.301a.313.313 0 0 1 .033.189.383.383 0 0 1-.129.201c-.111.094-.22.196-.342.277a1.598 1.598 0 0 1 0-.14c0-.063.019-.125-.002-.186l-.023-.001a1.734 1.734 0 0 0-.18.47c-.001.012-.012.018-.022.025a7.04 7.04 0 0 1-.63.38c-.091.052-.185.094-.275.147l-.005.032c.023.004.047.01.07.004.29-.085.576-.178.851-.306.014.103.037.214.112.29.085.088.22.101.335.088.19-.027.348-.148.486-.277.133-.13.249-.274.354-.428.058.15.143.29.266.395.193.174.453.253.706.278.05 0 .121.014.148-.042.02-.062.046-.126.042-.192-.05-.038-.112-.05-.168-.068a.413.413 0 0 1-.2-.14c-.031-.042-.033-.107.003-.146.052-.063.135-.086.211-.116.229-.084.46-.156.7-.202.067-.016.143-.007.198-.053.046-.042.06-.104.08-.16a.19.19 0 0 0 .01-.102.898.898 0 0 0-.199.005c-.272.015-.543.02-.816.02-.111-.001-.221.002-.332-.007.175-.095.364-.164.554-.234.037-.022.075.013.113.015 0-.016 0-.033-.002-.05.1-.04.207-.079.285-.158.062-.06.111-.142.105-.232 0-.094-.07-.169-.145-.216-.095-.06-.202-.124-.316-.12a.21.21 0 0 0-.163.084.638.638 0 0 0-.124.252.353.353 0 0 0 .06.207c-.16.047-.317.106-.472.164-.076.03-.154.054-.22.1-.064.043-.092.118-.112.188-.014.048-.04.099-.026.15.027.027.069.024.103.03.107.006.213.002.32.013a.58.58 0 0 1 .288.08c.014.01.03.02.037.036-.132.053-.267.139-.322.278a.373.373 0 0 0-.003.232c-.15-.04-.3-.118-.377-.253-.093-.162-.101-.353-.133-.532-.016-.12-.045-.235-.066-.35l-.001.016a3.392 3.392 0 0 0-.232-.63.427.427 0 0 0-.062-.122c-.052.03-.063.095-.089.146a.251.251 0 0 0-.024.19c.065.177.124.355.178.535l.004.007c.02.073.044.145.064.22l.004.006c.014.061.034.12.049.182-.098.187-.22.359-.374.502-.115.103-.245.2-.4.227-.072.008-.156.014-.216-.039-.047-.041-.054-.11-.05-.168.16-.083.3-.199.425-.329a.813.813 0 0 0 .227-.349.802.802 0 0 0 0-.331l-.023-.089c-.02-.062-.038-.125-.065-.184l.07-.015c.006-.063-.035-.117-.07-.166-.043-.055-.086-.112-.139-.157-.018-.02-.056-.028-.074-.005-.032.037-.048.082-.069.125-.018.042-.041.088-.031.135.012.04.054.056.084.073m2.27 1.633c.018.045.07.056.113.055.116.001.209-.084.296-.15.03-.026.075-.046.084-.091a.126.126 0 0 0-.066.008c-.099.035-.188.103-.296.115-.01-.013-.023-.024-.023-.042-.009-.08.046-.151.035-.233-.067-.01-.125.038-.178.073-.032.023-.075.038-.086.078.048.003.092-.027.142-.03.007.074-.046.143-.02.217M8.415 7.813c.066.004.112-.058.137-.113.056-.13.1-.265.145-.4.019-.05.034-.105.071-.146l.022.006c.002.03.004.057.003.088-.015.132-.02.268.012.399a.365.365 0 0 0 .147.231c.083.055.193.046.28.01a.681.681 0 0 0 .337-.304c.08.1.174.205.306.233.095.021.194-.037.243-.117a.669.669 0 0 0 .09-.415c-.013-.1-.031-.2-.057-.298-.012-.048-.039-.094-.046-.145.04.007.064.041.097.06.018.011.041.005.06.005a.209.209 0 0 0-.009-.098.591.591 0 0 0-.155-.255c-.032-.028-.065-.066-.112-.057a.653.653 0 0 0-.055.097c-.018.045-.077.07-.074.126.03.062.052.127.076.191.037.113.07.228.09.347a.54.54 0 0 1-.01.274c-.018.044-.064.079-.113.073-.059-.008-.104-.052-.133-.099a1.028 1.028 0 0 1-.133-.39 2.684 2.684 0 0 0-.034-.397.815.815 0 0 0-.097-.288h-.027c-.034.052-.055.113-.085.168-.028.05.012.102.02.153.033.163.069.33.065.5a.435.435 0 0 1-.067.249.445.445 0 0 1-.198.149c-.06.025-.131.036-.191.002-.064-.038-.09-.116-.09-.185-.004-.176-.01-.351.02-.524.006-.055.025-.112.012-.167a.156.156 0 0 0-.054-.073c-.035-.016-.067.01-.088.037a1.885 1.885 0 0 0-.182.3c-.074.145-.14.296-.19.45-.013.043-.05.1-.103.08-.073-.034-.109-.113-.136-.182a2.97 2.97 0 0 1-.02-.082 1.37 1.37 0 0 1-.013-.334c.006-.068.03-.134.03-.202h-.02c-.054.111-.084.235-.099.358a.759.759 0 0 0 .16.562c.045.052.095.115.168.123m3.041-1.092a.354.354 0 0 1 .085.123c.035.086-.014.173.003.261.039-.008.053-.05.07-.08.057-.139.023-.297-.045-.426-.02-.039-.048-.09-.102-.083-.034.042-.07.091-.06.148.007.024.032.04.05.057m-1.122.109c.022.056.094.058.124.106.178.235.358.47.515.716.016.1.028.203.04.304l.005.006c.005.054.013.106.021.159.044.346.094.692.117 1.042.003.15.017.306-.03.451-.012.052-.02.105-.012.157.04-.002.055-.045.069-.074.093-.218.113-.46.108-.694l-.007-.007c0-.222-.048-.44-.06-.66-.005-.112-.017-.224-.022-.336.222.353.453.704.63 1.082.043.082.067.174.12.25a.291.291 0 0 0 .029-.005 1.096 1.096 0 0 0-.099-.429 5.157 5.157 0 0 0-.337-.648 16.707 16.707 0 0 0-.351-.564c-.034-.048-.021-.11-.027-.163-.009-.116-.009-.232-.01-.349.02.019.045.034.074.029l.016-.03c.004-.053-.016-.104-.03-.153-.044-.136-.105-.265-.161-.398-.01-.028-.028-.06-.061-.066-.04-.008-.063.031-.077.063-.017.047-.037.095-.044.145-.007.046.019.09.044.126-.001.144.032.287.043.43a.122.122 0 0 0-.01-.023c-.085-.114-.16-.232-.24-.348.044.009.089.025.133.003.004-.055-.036-.092-.066-.13-.108-.115-.23-.215-.348-.32-.026-.025-.06-.033-.094-.025-.004.006-.01.02-.016.027-.004.065.013.129.01.194.003.043-.009.09.004.132m-1.137.074c.013.076-.001.154.004.23h.02c.015-.039.023-.078.032-.118a.932.932 0 0 0-.025-.362c-.014-.041-.03-.083-.067-.109-.031-.005-.05.028-.069.05-.022.027.003.061.018.085a.5.5 0 0 1 .087.224" fill="#FAFAFA"/>
    </g>
</svg>
