<svg width="20" height="20" viewBox="0 0 20 20" xmlns="http://www.w3.org/2000/svg" xmlns:xlink="http://www.w3.org/1999/xlink">
    <defs>
        <path id="b" d="M0 0h11.833v20H0z"/>
        <path id="d" d="M0 20h20V0H0z"/>
        <filter x="-60%" y="-60%" width="220%" height="220%" id="a">
            <feOffset dy="2" in="SourceAlpha" result="shadowOffsetOuter1"/>
            <feGaussianBlur stdDeviation="2" in="shadowOffsetOuter1" result="shadowBlurOuter1"/>
            <feColorMatrix values="0 0 0 0 0 0 0 0 0 0 0 0 0 0 0 0 0 0 0.2 0" in="shadowBlurOuter1" result="shadowMatrixOuter1"/>
            <feMerge>
                <feMergeNode in="shadowMatrixOuter1"/>
                <feMergeNode in="SourceGraphic"/>
            </feMerge>
        </filter>
    </defs>
    <g filter="url(#a)" fill="none" fill-rule="evenodd">
        <g transform="translate(8.166)">
            <mask id="c" fill="#fff">
                <use xlink:href="#b"/>
            </mask>
            <path d="M1.834 0C1.207 0 .594.06 0 .172V19.83c.594.11 1.207.17 1.834.17 5.522 0 10-4.477 10-10s-4.478-10-10-10" fill="#CE1126" mask="url(#c)"/>
        </g>
        <path d="M0 10c0 4.896 3.52 8.968 8.166 9.83V.172C3.52 1.032 0 5.104 0 10" fill="#3D8E33"/>
        <path d="M12.126 13.152C10.6 13.106 3.6 8.737 3.55 8.042l.388-.645c.693 1.009 7.848 5.257 8.552 5.108l-.364.647z" fill="#FCD856"/>
        <path d="M3.557 8.04c.042.683 7.037 5.055 8.565 5.104l.368-.632a.301.301 0 0 1-.042.003c-.914-.002-7.83-4.118-8.504-5.114l-.387.64zm-.014-.002.4-.646c.676.988 7.607 5.11 8.505 5.108.015 0 .028-.001.047.008l-.362.647-.007-.003v.008c-1.535-.05-8.527-4.41-8.583-5.122z" fill="#000"/>
        <path d="M12.162 13.172c-.026.047-.073.049-.166.04-.57-.065-2.304-.908-4.353-2.135C5.257 9.65 3.286 8.348 3.499 8.008l.058-.104.012.005c-.19.577 3.89 2.908 4.129 3.059 2.36 1.462 4.351 2.316 4.527 2.094l-.063.11zM3.857 7.309c-.138.367 1.825 1.582 4.189 3.018 2.362 1.438 4.4 2.327 4.549 2.2.01-.017.075-.13.07-.129-.03.043-.098.057-.205.024-.64-.183-2.304-.947-4.366-2.198-2.06-1.25-3.854-2.401-4.133-2.89a.307.307 0 0 1-.03-.145h-.007l-.06.104-.007.016z" fill="#FCD856"/>
        <path d="M3.856 7.347c-.005.397 1.908 1.587 4.193 2.973 2.21 1.347 4.14 2.21 4.494 2.21.024 0 .038-.004.045-.008l.052-.092a.155.155 0 0 1-.077.017.344.344 0 0 1-.106-.017c-.641-.185-2.303-.948-4.367-2.2-2.062-1.25-3.854-2.4-4.136-2.893a.312.312 0 0 1-.032-.13l-.051.089-.008.016a.09.09 0 0 0-.007.035zm4.184 2.987C5.754 8.942 3.845 7.768 3.841 7.347c0-.014.003-.028.007-.042l.008.003-.007-.004.009-.015.065-.107.015.009v.01c0 .045.013.1.03.129.275.485 2.07 1.639 4.13 2.886 2.061 1.252 3.725 2.016 4.363 2.199.04.012.073.017.102.017.04 0 .067-.01.087-.021l.007-.013h.007v-.008s.006-.001.008.008c-.002.016-.06.115-.072.134-.014.01-.031.013-.057.013-.364 0-2.289-.864-4.503-2.211zm-4.535-2.32a.086.086 0 0 0-.014.052c-.005.4 1.89 1.65 4.155 3.005 2.048 1.225 3.784 2.07 4.35 2.133a.824.824 0 0 0 .069.004c.048 0 .073-.01.09-.04l.075-.1c-.022.025-.063.037-.12.037-.49 0-2.305-.823-4.415-2.131-.236-.15-4.136-2.37-4.14-3.022 0-.017.002-.031.01-.036l-.001-.007-.059.104zm8.56 5.209c-.021 0-.044-.002-.07-.004-.575-.064-2.307-.909-4.358-2.135C5.371 9.724 3.48 8.49 3.476 8.066a.1.1 0 0 1 .016-.06l.067-.109.017.014a.148.148 0 0 0-.006.04c-.006.628 3.897 2.865 4.131 3.01 2.11 1.308 3.93 2.128 4.41 2.128a.3.3 0 0 0 .12-.023l-.075.103h.001-.001l-.002.003h.008l.006.004c-.019.035-.052.047-.1.047h-.003z" fill="#000"/>
        <path d="M8.097 13.447c1.842.01 3.45-.259 4.184-.641l.267-.468c-.637.348-2.372.71-4.448.655-1.692-.012-3.5-.188-4.367-.678l.391.544c.706.389 2.389.586 3.973.588" fill="#FCD856"/>
        <path d="M8.097 13.455v-.016h.092c1.804 0 3.367-.266 4.085-.637l.277-.458c-.596.326-2.144.661-4.036.661-.137 0-.276 0-.415-.004-1.693-.012-3.5-.189-4.36-.69l.388.542c.702.387 2.386.585 3.969.586v.016c-1.586-.002-3.267-.198-3.978-.592l-.382-.554c.864.487 2.671.665 4.363.677.14.003.278.004.415.004 1.89 0 3.438-.335 4.04-.65l-.272.473c-.725.375-2.29.642-4.094.642h-.092z" fill="#000"/>
        <path d="M8.122 13.49c-1.063-.004-2.043-.068-2.806-.208-.553-.11-.92-.242-1.193-.386l-.103-.156c.2.127.592.291 1.314.43.757.14 1.732.205 2.788.208 1.005-.008 1.955-.061 2.724-.195.656-.118 1.401-.328 1.597-.55l-.115.186c-.22.166-.825.355-1.435.475-.774.141-1.766.197-2.771.195m0-.428c-1.172-.008-2.103-.053-2.92-.204a5.515 5.515 0 0 1-1.558-.537l-.049-.104c.145.107.792.373 1.626.53.792.14 1.713.204 2.898.199 1.045.002 2.058-.047 2.86-.198.796-.153 1.416-.337 1.667-.502l-.08.143c-.102.114-.82.326-1.57.468-.809.147-1.824.206-2.874.205" fill="#FCD856"/>
        <path d="M8.171 13.053c1.032 0 2.027-.06 2.823-.204.75-.142 1.47-.356 1.565-.466l.09-.132c-.253.167-.871.35-1.67.502-.784.149-1.772.2-2.792.2H8.01c-1.134 0-2.022-.064-2.79-.2-.836-.157-1.483-.423-1.618-.54l.045.1c.28.143.816.402 1.556.536.816.151 1.748.196 2.919.204h.049zm-.049.015v-.008.008c-1.172-.008-2.103-.053-2.922-.203a5.488 5.488 0 0 1-1.564-.543L3.6 12.21c.142.106.79.372 1.624.53.766.135 1.653.199 2.787.199h.177c1.02 0 2.006-.051 2.79-.2.796-.152 1.416-.336 1.675-.49l-.08.145c-.108.118-.823.327-1.575.47-.797.145-1.794.205-2.826.205h-.049zm0 .421v.007c-1.064-.003-2.044-.067-2.807-.207-.554-.108-.922-.242-1.199-.39l-.091-.165c.197.125.59.29 1.31.43.756.139 1.73.203 2.787.206 1.004-.007 1.955-.062 2.721-.194.655-.118 1.4-.329 1.606-.539-.202.227-.945.436-1.602.555-.77.133-1.72.185-2.725.194-1.056-.003-2.033-.067-2.79-.208-.722-.139-1.116-.304-1.306-.442l.1.153c.273.143.64.276 1.192.384.763.14 1.741.205 2.804.208h.057c.985 0 1.954-.057 2.712-.194.61-.12 1.214-.31 1.43-.472l.128-.178h.001l-.118.188c-.223.17-.827.356-1.439.477-.76.138-1.73.194-2.714.194h-.057v-.007z" fill="#000"/>
        <path d="M8.154 11.04c1.705-.014 3.82-.24 5.03-.733v-.432c-.714.404-3.103.672-5.044.712-2.294-.023-4.16-.337-4.973-.893l-.011.556c1.492.646 3.032.782 4.998.79" fill="#FCD856"/>
        <path d="M3.159 10.243c1.49.645 3.029.781 4.995.79 1.703-.015 3.82-.241 5.022-.725l.011-.427c-.717.406-3.105.673-5.049.713-2.294-.022-4.16-.335-4.963-.9l-.016.549zm-.01.007.023-.562c.808.555 2.674.868 4.966.89 1.941-.038 4.33-.308 5.053-.703l-.005.44c-1.21.493-3.326.718-5.032.733v-.008.008c-1.967-.008-3.508-.145-5.006-.798z" fill="#000"/>
        <path d="M13.241 10.318c-.04.068-.832.345-1.993.552-.787.123-1.816.228-3.1.23-1.218 0-2.212-.089-2.966-.193-1.22-.195-1.85-.468-2.084-.564.023-.045-.02-.077 0-.12.67.275 1.361.44 2.102.553.75.105 1.733.196 2.944.194 1.278 0 2.294-.115 3.077-.233 1.193-.195 1.93-.45 2.02-.568v.15z" fill="#FCD856"/>
        <path d="M3.098 10.253c0 .02.013.043.014.071 0 .01-.002.021-.011.023.233.102.862.391 2.081.6.749.11 1.737.205 2.946.205h.02a18.86 18.86 0 0 0 3.098-.245c1.157-.216 1.95-.516 1.988-.583l.013-.15c-.095.13-.83.398-2.024.607-.785.127-1.801.248-3.08.248H8.1c-1.193 0-2.16-.095-2.901-.205-.74-.122-1.433-.297-2.094-.593a.036.036 0 0 0-.006.022m5.03.915c-1.21 0-2.199-.094-2.948-.204-1.22-.21-1.852-.5-2.09-.614a.06.06 0 0 0 .006-.026c0-.022-.013-.044-.013-.071 0-.01.002-.02.018-.033.67.29 1.36.467 2.1.588.74.11 1.707.206 2.898.206h.044a19.07 19.07 0 0 0 3.077-.248c1.19-.208 1.93-.483 2.029-.597v.159h-.008l.006.003c-.048.081-.834.371-1.998.593a18.99 18.99 0 0 1-3.1.245h-.02" fill="#000"/>
        <path d="M13.241 9.878c-.128.107-1.003.34-2.134.525-.756.111-1.717.212-2.946.212-1.165 0-2.119-.079-2.843-.188-1.151-.154-2.22-.671-2.22-.671l-.001-.167s1.066.545 2.233.714c.717.103 1.671.181 2.831.179a19.57 19.57 0 0 0 2.924-.213c1.139-.159 2.065-.457 2.156-.531v.14zm0 .44c-.04.068-.832.346-1.993.552-.787.122-1.816.228-3.1.23-1.218 0-2.212-.089-2.966-.193-1.22-.195-1.85-.468-2.084-.564.023-.046-.02-.077 0-.12.67.274 1.362.44 2.102.554.75.104 1.733.195 2.944.193 1.278 0 2.294-.115 3.077-.233 1.193-.195 1.93-.45 2.02-.568v.15z" fill="#FCD856"/>
        <path d="M3.1 9.75c.004 0 1.07.516 2.218.67a19.23 19.23 0 0 0 2.802.186l.041.001c1.228 0 2.188-.101 2.944-.212 1.126-.183 2-.417 2.129-.522l.011-.13c-.095.077-1.02.374-2.16.533a19.61 19.61 0 0 1-2.924.214h-.046c-1.14 0-2.079-.078-2.787-.18-1.157-.167-2.216-.704-2.224-.722l-.003.162zm5.02.872c-1.148 0-2.088-.08-2.804-.187a8.098 8.098 0 0 1-2.226-.679l.01-.174c.002 0 1.066.545 2.231.712.707.102 1.645.18 2.784.18h.046c1.221 0 2.172-.102 2.923-.214 1.136-.157 2.065-.457 2.165-.522v.14h-.008l.005.005c-.133.11-1.006.34-2.138.528-.757.11-1.718.21-2.947.21h-.04zm-5.022-.374c0 .019.013.04.014.065 0 .01-.002.021-.011.023.233.096.862.367 2.081.563a21.63 21.63 0 0 0 2.946.193h.02c1.282-.001 2.311-.107 3.099-.23 1.156-.203 1.95-.486 1.987-.547l.013-.14c-.095.121-.83.373-2.024.569a20.16 20.16 0 0 1-3.08.233H8.1c-1.193 0-2.16-.09-2.901-.193-.74-.114-1.433-.28-2.094-.557a.03.03 0 0 0-.006.02zm5.03.86a21.6 21.6 0 0 1-2.948-.193c-1.22-.197-1.852-.469-2.09-.576a.055.055 0 0 0 .006-.026c0-.02-.013-.04-.013-.065 0-.01.002-.019.018-.032.67.274 1.36.44 2.1.553.74.103 1.707.193 2.898.193h.044c1.278-.001 2.294-.115 3.077-.233 1.19-.195 1.93-.453 2.03-.56v.149h-.009l.006.003c-.048.075-.834.349-1.998.556-.788.123-1.817.23-3.1.23h-.021z" fill="#000"/>
        <path d="M8.18 8.462c1.527-.011 3.414-.209 4.498-.641l-.232-.379c-.643.353-2.54.588-4.279.623-2.057-.019-3.512-.211-4.239-.7l-.22.404c1.337.567 2.709.687 4.472.693" fill="#FCD856"/>
        <path d="M3.71 7.762c1.337.566 2.707.687 4.47.693 1.526-.012 3.413-.21 4.492-.63l-.223-.376c-.646.354-2.54.589-4.282.624-2.058-.02-3.513-.21-4.232-.704l-.225.393zm4.47.7v.008c-1.763-.006-3.137-.127-4.48-.704l.233-.407c.723.486 2.176.68 4.234.698 1.739-.035 3.635-.27 4.284-.618l.23.39c-1.086.432-2.973.629-4.5.64l-.001-.007z" fill="#000"/>
        <path d="M12.537 7.446c-.118.092-.694.296-1.71.458-.678.1-1.538.186-2.64.187-1.047.001-1.901-.07-2.552-.165a8.444 8.444 0 0 1-1.778-.449l.062-.1c.153.077.683.29 1.727.44.644.09 1.499.157 2.54.157 1.097 0 1.95-.09 2.622-.187 1.02-.14 1.57-.4 1.654-.467l.075.126zm.203.384c-.036.06-.743.303-1.785.483-.708.108-1.63.201-2.78.203-1.094 0-1.987-.078-2.661-.17-1.095-.172-1.66-.41-1.869-.494.02-.04.033-.068.05-.106.603.24 1.17.384 1.834.486.672.091 1.555.17 2.642.17a18.55 18.55 0 0 0 2.76-.206c1.07-.171 1.653-.394 1.735-.496l.074.13z" fill="#FCD856"/>
        <path d="M3.86 7.47c.197.072.746.314 1.777.449.645.093 1.491.163 2.527.163l.021.002a18.208 18.208 0 0 0 2.641-.187c1-.16 1.576-.362 1.7-.454l-.06-.117c-.085.07-.635.328-1.658.469a17.9 17.9 0 0 1-2.623.187l-.022-.001a18.26 18.26 0 0 1-2.518-.157c-1.045-.15-1.576-.363-1.72-.443-.02.032-.042.065-.065.09zm4.304.627c-1.037 0-1.883-.07-2.53-.163-1.032-.134-1.583-.379-1.784-.46.02-.034.04-.07.072-.104.151.076.682.29 1.725.438a18.225 18.225 0 0 0 2.538.159c1.096 0 1.949-.09 2.621-.188 1.02-.139 1.57-.4 1.662-.463l.075.125-.006.005.004.005c-.12.095-.696.298-1.713.461-.678.1-1.54.184-2.643.185h-.02zm-4.517-.253c.21.086.774.323 1.867.494.67.091 1.557.17 2.64.17h.02c1.15-.001 2.072-.094 2.779-.202 1.02-.176 1.724-.418 1.778-.478l-.059-.124c-.088.108-.669.328-1.74.5-.704.104-1.615.204-2.761.206h-.02c-1.08 0-1.956-.079-2.623-.17a7.705 7.705 0 0 1-1.825-.491c-.018.037-.031.066-.056.095zm4.507.678c-1.084 0-1.971-.078-2.642-.168-1.094-.172-1.661-.41-1.874-.505.02-.04.032-.068.06-.11.602.24 1.169.383 1.832.486a19.536 19.536 0 0 0 2.641.17 18.438 18.438 0 0 0 2.759-.207c1.068-.17 1.653-.394 1.743-.493l.074.131-.007.003.007.005c-.043.067-.747.305-1.792.487-.708.108-1.63.2-2.78.201h-.021z" fill="#000"/>
        <path d="M8.166 14.453a4.452 4.452 0 0 1 0-8.905 4.453 4.453 0 1 1 0 8.905m0-9.379a4.927 4.927 0 0 0 0 9.852 4.925 4.925 0 1 0 0-9.852" fill="#FCD856"/>
        <path d="M8.166 5.125A4.877 4.877 0 0 0 3.29 10a4.877 4.877 0 0 0 9.753 0 4.876 4.876 0 0 0-4.877-4.875M13.142 10a4.976 4.976 0 1 1-9.951.001 4.976 4.976 0 0 1 9.951 0" fill="#FCD856"/>
        <path d="M3.282 10a4.885 4.885 0 0 1 4.884-4.882v.015a4.876 4.876 0 0 0-4.868 4.868 4.876 4.876 0 0 0 4.868 4.868 4.875 4.875 0 0 0 4.869-4.868 4.874 4.874 0 0 0-4.869-4.868v-.015A4.884 4.884 0 1 1 3.282 10m-.084 0a4.975 4.975 0 0 0 4.968 4.968A4.975 4.975 0 0 0 13.135 10a4.975 4.975 0 0 0-4.969-4.968A4.975 4.975 0 0 0 3.198 10m-.015 0a4.984 4.984 0 1 1 9.968 0 4.984 4.984 0 0 1-9.968 0" fill="#000"/>
        <path d="M8.166 5.597a4.404 4.404 0 1 0 .004 8.808 4.404 4.404 0 0 0-.004-8.808M12.67 10a4.503 4.503 0 1 1-9.005 0 4.503 4.503 0 0 1 9.005 0" fill="#FCD856"/>
        <path d="M3.755 10a4.412 4.412 0 0 1 4.41-4.411v.015a4.404 4.404 0 0 0-4.395 4.397 4.401 4.401 0 0 0 4.396 4.394 4.4 4.4 0 0 0 4.396-4.394 4.403 4.403 0 0 0-4.396-4.397v-.015a4.41 4.41 0 1 1 0 8.821A4.41 4.41 0 0 1 3.755 10m-.084 0a4.502 4.502 0 0 0 4.495 4.496A4.502 4.502 0 0 0 12.662 10a4.501 4.501 0 0 0-4.496-4.495 4.501 4.501 0 0 0-4.495 4.495m-.015 0a4.51 4.51 0 0 1 4.51-4.51 4.51 4.51 0 1 1 0 9.02 4.51 4.51 0 0 1-4.51-4.51" fill="#000"/>
        <path d="M8.116 8.95c2.075-.011 4.24.297 5.068.731v.534c-.72-.396-2.723-.809-5.065-.747-1.907.012-3.941.215-4.963.771v-.615c.84-.446 3.175-.67 4.96-.673" fill="#FCD856"/>
        <path d="m3.163 9.623-.01.61c1.024-.559 3.058-.76 4.964-.773.157-.004.314-.006.47-.006 2.137 0 3.926.383 4.589.76l.003-.526c-.81-.427-2.912-.731-4.95-.731l-.113.001c-1.785.003-4.122.23-4.953.665zm-.01-.007c.841-.446 3.175-.67 4.962-.673l.113-.001c2.042 0 4.143.304 4.963.74l-.012.54c-.668-.368-2.457-.753-4.592-.753-.155 0-.312.003-.468.006-1.906.013-3.94.215-4.97.765l.003-.624z" fill="#000"/>
        <path d="M8.142 8.902c1.134-.003 2.252.064 3.124.223.689.136 1.727.35 1.975.54v.212c-.222-.251-1.287-.491-2.027-.626-.866-.152-1.938-.213-3.072-.222-1.188.003-2.288.078-3.14.236-.815.16-1.681.346-1.904.491V9.58c.308-.166 1.26-.318 1.884-.441.86-.16 1.965-.233 3.16-.237m0 .489c1.184-.002 2.329.065 3.239.235.848.159 1.745.402 1.86.532v.161c-.28-.187-.98-.396-1.877-.57-.902-.173-2.046-.23-3.224-.227-1.335-.005-2.374.068-3.265.225-.941.18-1.615.439-1.777.56v-.169c.314-.164.918-.362 1.754-.515.921-.173 1.97-.224 3.29-.232" fill="#FCD856"/>
        <path d="M11.215 9.242c.741.136 1.804.374 2.019.635l.002-.206c-.243-.188-1.284-.402-1.971-.538-.853-.157-1.942-.223-3.047-.223h-.076c-1.195.004-2.3.076-3.159.236-.623.123-1.577.276-1.878.433l-.012.171C3.32 9.602 4.185 9.417 5 9.257c.853-.157 1.954-.233 3.142-.236 1.133.01 2.206.07 3.073.221m-.003.016c-.865-.152-1.937-.212-3.07-.221-1.188.003-2.287.078-3.139.236-.813.157-1.682.345-1.914.483l.005-.184c.31-.165 1.263-.318 1.886-.44.86-.16 1.967-.234 3.162-.238v.016-.016h.076c1.107 0 2.196.066 3.05.224.69.135 1.725.348 1.98.548l-.013.216c-.217-.248-1.284-.49-2.023-.624m.15.498c-.877-.167-1.984-.226-3.129-.226h-.225c-1.273 0-2.273.072-3.132.225-.94.18-1.615.438-1.787.552l.005-.175c.315-.166.92-.363 1.756-.516.923-.173 1.972-.225 3.292-.233v.015c-1.32.009-2.369.06-3.29.233-.834.153-1.438.35-1.747.508l-.012.162c.164-.123.838-.381 1.78-.562.86-.152 1.862-.225 3.135-.225h.225c1.145 0 2.254.06 3.132.227.898.175 1.597.383 1.869.578v-.156c-.107-.126-1.008-.371-1.855-.53-.892-.167-2.007-.235-3.164-.235h-.073v-.015h.073c1.158 0 2.275.068 3.167.235.849.16 1.744.4 1.867.54l-.013.167c-.277-.185-.978-.395-1.875-.57" fill="#000"/>
        <path d="M8.145 6.63c1.862-.01 3.487.26 4.23.64l.27.47c-.645-.348-2.398-.71-4.497-.656-1.71.012-3.539.187-4.455.677l.323-.541c.753-.39 2.528-.589 4.13-.59" fill="#FCD856"/>
        <path d="m4.021 7.224-.333.529c.92-.49 2.749-.667 4.46-.677.14-.004.28-.006.42-.006 1.911 0 3.476.337 4.07.673l-.267-.466c-.729-.372-2.31-.64-4.131-.64h-.095c-1.6.002-3.376.202-4.124.587zm-.009-.011c.756-.39 2.53-.59 4.133-.59V6.62h.095c1.822 0 3.405.267 4.14.646l.262.48c-.6-.324-2.165-.662-4.074-.661-.14 0-.28 0-.42.005-1.71.011-3.538.188-4.463.667l.327-.545z" fill="#000"/>
        <path d="M8.17 6.588c1.016-.002 2.02.053 2.801.194.618.12 1.227.308 1.451.475l.118.189c-.2-.224-.951-.434-1.616-.553-.777-.133-1.738-.187-2.755-.195-1.067.002-2.052.068-2.816.209-.73.139-1.201.302-1.4.431l.102-.156c.276-.145.72-.277 1.28-.387.77-.14 1.761-.204 2.834-.207m0 .429c1.062-.003 2.088.057 2.907.204.758.142 1.484.354 1.588.468l.079.142c-.252-.165-.879-.346-1.685-.5-.809-.153-1.833-.202-2.891-.2-1.197-.005-2.13.058-2.93.2-.843.159-1.429.382-1.575.49l.08-.151c.28-.141.727-.316 1.477-.45.825-.15 1.768-.196 2.95-.203" fill="#FCD856"/>
        <path d="m12.533 7.45-.115-.187c-.222-.165-.831-.354-1.45-.473-.768-.139-1.75-.195-2.749-.195l-.05.001c-1.073.003-2.063.066-2.833.206-.56.11-1.002.243-1.275.383l-.112.146c.2-.13.67-.293 1.403-.432.763-.14 1.75-.206 2.817-.208 1.017.007 1.978.06 2.755.194.665.119 1.415.327 1.608.564-.198-.22-.948-.432-1.61-.548-.776-.133-1.737-.186-2.753-.195-1.066.002-2.052.067-2.814.208-.73.14-1.201.302-1.409.42l.105-.16c.278-.145.722-.277 1.283-.387.77-.14 1.761-.204 2.835-.205V6.58h.05c1 0 1.982.056 2.753.194.619.121 1.229.307 1.457.478l.105.199v-.002zm-1.473-.127c.806.154 1.432.336 1.675.512l-.078-.141c-.098-.11-.826-.324-1.583-.466-.798-.142-1.793-.204-2.825-.204h-.08v-.007.008c-1.183.006-2.125.051-2.95.202-.748.135-1.196.308-1.47.447l-.092.14c.149-.109.735-.332 1.58-.491.769-.137 1.662-.2 2.795-.2h.222c1.027 0 2.018.05 2.806.2zm-.003.016c-.786-.15-1.777-.201-2.803-.201h-.222c-1.133 0-2.025.063-2.793.2-.842.158-1.43.383-1.585.48l.084-.154c.28-.142.729-.318 1.478-.452.827-.15 1.77-.196 2.953-.202h.08c1.034 0 2.03.06 2.827.204.76.142 1.483.351 1.594.471l.068.152c-.25-.163-.876-.344-1.68-.498z" fill="#000"/>
        <path d="M8.17 6.588c1.016-.002 2.02.053 2.801.194.618.12 1.227.308 1.451.475l.118.189c-.2-.224-.951-.434-1.616-.553-.776-.133-1.738-.187-2.755-.195-1.067.002-2.052.068-2.816.209-.73.138-1.201.301-1.4.431l.102-.156c.276-.145.72-.277 1.28-.387.77-.14 1.761-.204 2.834-.207m0 .429c1.062-.003 2.088.057 2.905.204.76.142 1.486.354 1.59.468l.079.142c-.252-.165-.879-.346-1.685-.5-.809-.153-1.833-.203-2.891-.2-1.197-.005-2.13.058-2.928.2-.845.159-1.431.382-1.577.49l.08-.151c.28-.141.727-.316 1.477-.45.825-.15 1.768-.196 2.95-.203" fill="#FCD856"/>
        <path d="m12.533 7.45-.115-.187c-.222-.165-.831-.354-1.45-.473-.768-.139-1.75-.195-2.749-.195l-.05.001v-.008.008c-1.073.003-2.063.066-2.833.206-.56.11-1.002.243-1.275.383l-.112.146c.2-.13.67-.294 1.403-.432.763-.14 1.75-.206 2.817-.208 1.017.007 1.979.06 2.755.194.665.119 1.415.327 1.608.564-.198-.22-.948-.432-1.61-.548-.775-.133-1.737-.186-2.753-.195-1.066.002-2.052.067-2.814.208-.73.137-1.201.302-1.409.42l.105-.16c.278-.145.722-.277 1.283-.387.77-.14 1.762-.204 2.835-.207h.05c1 0 1.982.056 2.753.194.619.121 1.229.307 1.457.478l.105.199v-.002zm-1.473-.127c.806.154 1.432.336 1.675.512l-.078-.141c-.098-.11-.826-.324-1.584-.466-.797-.142-1.792-.204-2.824-.204h-.08v-.007.008c-1.183.006-2.125.051-2.95.202-.748.135-1.196.308-1.47.447l-.092.14c.149-.109.735-.332 1.58-.491.769-.137 1.662-.2 2.795-.2h.247c1.017 0 2 .052 2.781.2zm-.003.015c-.78-.147-1.761-.2-2.778-.2h-.247c-1.133 0-2.025.063-2.792.2-.843.158-1.43.383-1.586.48l.084-.154c.28-.142.729-.318 1.478-.452.827-.15 1.77-.196 2.953-.202h.08c1.034 0 2.03.06 2.826.204.76.142 1.484.351 1.595.471l.068.152c-.25-.163-.876-.344-1.68-.499z" fill="#000"/>
        <path d="M8.13 11.605c1.529.011 3.415.207 4.498.64l-.233.382c-.64-.356-2.536-.59-4.277-.624-2.06.018-3.485.23-4.198.631l-.198-.338c1.273-.566 2.645-.686 4.408-.69" fill="#FCD856"/>
        <path d="m3.728 12.292.188.335c.716-.403 2.142-.613 4.202-.632 1.741.035 3.635.267 4.27.628l.237-.371c-1.082-.432-2.968-.629-4.495-.639-1.763.004-3.133.125-4.402.679zm-.01-.003c1.276-.565 2.649-.687 4.412-.692v.016-.016c1.53.011 3.415.208 4.506.65l-.245.386c-.638-.354-2.534-.588-4.273-.623-2.059.02-3.484.23-4.205.628l-.195-.349z" fill="#000"/>
        <path d="M12.271 12.694c-.205-.104-.721-.3-1.554-.415a18.146 18.146 0 0 0-2.607-.185c-1.035-.001-1.886.066-2.524.157-1.04.148-1.567.364-1.72.44l-.06-.102c.197-.07.743-.313 1.768-.447a17.623 17.623 0 0 1 2.536-.164c1.096.001 1.953.088 2.626.185.837.133 1.374.297 1.6.403l-.065.128zm.37-.457-.076.13c-.083-.104-.664-.325-1.726-.497a18.178 18.178 0 0 0-2.744-.203 19.007 19.007 0 0 0-2.625.167 8.07 8.07 0 0 0-1.824.486l-.05-.104c.208-.085.768-.324 1.856-.495.673-.09 1.561-.169 2.647-.168 1.144 0 2.06.093 2.763.2 1.037.18 1.74.425 1.779.484z" fill="#FCD856"/>
        <path d="M8.096 11.659c1.139 0 2.045.098 2.744.203 1.064.173 1.642.393 1.717.5l.073-.125c-.055-.058-.756-.301-1.77-.476-.702-.108-1.618-.2-2.761-.2h-.02c-1.078 0-1.957.078-2.626.166-1.088.172-1.646.411-1.851.485a.46.46 0 0 1 .041.1 8.071 8.071 0 0 1 1.826-.484 18.74 18.74 0 0 1 2.587-.17h.04zm2.742.219a18.162 18.162 0 0 0-2.742-.204h-.04a18.73 18.73 0 0 0-2.585.168 8.51 8.51 0 0 0-1.832.481.642.642 0 0 1-.047-.115c.209-.085.77-.323 1.86-.494a19.56 19.56 0 0 1 2.647-.169c1.144 0 2.06.093 2.764.2 1.038.182 1.739.422 1.783.487l-.005.004.005.004-.088.132c-.078-.099-.659-.323-1.72-.494zm-5.263.27c-1.025.135-1.57.379-1.763.438.02.034.04.068.05.098.154-.077.681-.293 1.722-.442.634-.09 1.477-.157 2.5-.157h.026c1.09.002 1.938.09 2.608.187.824.113 1.338.307 1.549.412l.064-.111c-.224-.106-.76-.27-1.597-.403a18.148 18.148 0 0 0-2.624-.185h-.022c-1.03 0-1.871.07-2.513.164zm5.14.139A18.062 18.062 0 0 0 8.11 12.1h-.026c-1.022 0-1.865.067-2.498.157-1.039.149-1.566.364-1.727.438-.02-.035-.04-.067-.056-.114.197-.07.744-.314 1.77-.449a17.641 17.641 0 0 1 2.515-.163h.022c1.096 0 1.953.087 2.627.185.837.134 1.373.296 1.605.414l-.064.128-.007-.003-.004.007c-.205-.103-.72-.3-1.551-.414z" fill="#000"/>
        <mask id="e" fill="#fff">
            <use xlink:href="#d"/>
        </mask>
        <path fill="#FCD856" mask="url(#e)" d="M8.365 15h.106V5.001h-.106z"/>
        <path d="M8.375 14.993h.214l.017-9.984L8.392 5l-.017 9.992zM8.357 15l.018-10.007.248.008v10h-.017v.007L8.357 15z" fill="#000" mask="url(#e)"/>
        <path fill="#FCD856" mask="url(#e)" d="M7.863 15h.105V5.001h-.105z"/>
        <path d="M7.87 14.992h.217l.015-9.983L7.889 5l-.018 9.991zM7.856 15 7.87 4.993 8.119 5v10h-.017v.007L7.855 15z" fill="#000" mask="url(#e)"/>
        <path fill="#FCD856" mask="url(#e)" d="M7.968 14.951h.397v-9.9h-.397z"/>
        <path d="M7.977 14.944h.852l.018-9.886-.853-.008-.017 9.894zm-.017.007.017-9.91.887.01v9.9h-.017v.008l-.887-.008z" fill="#000" mask="url(#e)"/>
        <path d="M3.972 7.214c1.54-.021 8.637 4.338 8.658 5.138l-.44.675c-.199-.93-7.401-5.172-8.59-5.092l.372-.721z" fill="#FCD856" mask="url(#e)"/>
        <path d="m12.182 13.022.44-.67c-.015-.786-7.088-5.136-8.64-5.132l-.005.001-.378.707c.011-.001.023-.003.036-.003 1.293.005 8.358 4.168 8.547 5.097zm-8.547-5.08c-.013 0-.025 0-.042-.01l.372-.722.007.004v-.009h.01c1.568.004 8.625 4.335 8.654 5.152l-.454.671c-.19-.912-7.27-5.09-8.547-5.086z" fill="#000" mask="url(#e)"/>
        <path d="M12.674 12.402c.18-.355-1.764-1.819-4.176-3.248C6.032 7.758 4.255 6.935 3.931 7.18l-.073.131c0 .007.002-.009.018-.02.059-.053.156-.05.2-.05.56.01 2.155.744 4.398 2.028.98.572 4.146 2.602 4.134 3.173 0 .05.004.059-.015.083l.081-.123zM3.555 7.91c.287-.195 2.384.74 4.577 2.063 2.188 1.326 4.277 2.826 4.09 3.106l-.062.098-.029.023c.007-.004.038-.043-.003-.147-.093-.306-1.577-1.49-4.038-2.976C5.692 8.646 3.693 7.784 3.492 8.03l.063-.121z" fill="#FCD856" mask="url(#e)"/>
        <path d="M12.615 12.442v.035l.052-.08a.112.112 0 0 0 .01-.048c.004-.419-1.878-1.824-4.183-3.187C6.32 7.93 4.678 7.144 4.104 7.144c-.078 0-.134.014-.168.04l-.05.088a.31.31 0 0 1 .173-.04l.016.002c.564.01 2.16.744 4.402 2.028.979.574 4.133 2.59 4.138 3.176h-.003l.003.004zm-.028.079.007-.012c.005-.01.005-.016.005-.031 0-.01 0-.021.002-.032-.004-.005-.002-.008-.002-.008.006-.562-3.154-2.594-4.13-3.162-2.24-1.284-3.84-2.018-4.394-2.027l-.016-.001c-.049 0-.129.004-.179.049-.01.006-.01.01-.015.013v.001h-.002a.03.03 0 0 1-.014.002v-.006l.076-.134c.04-.03.099-.043.179-.043.583 0 2.222.786 4.399 2.019 2.305 1.367 4.186 2.76 4.19 3.2 0 .021-.004.04-.012.057l-.006-.004.005.005-.065.078c0 .018-.006.028-.028.036zm-4.493-2.45c2.463 1.487 3.945 2.666 4.041 2.98.015.039.021.07.021.093a.15.15 0 0 1-.004.03l.001-.001.06-.099a.066.066 0 0 0 .01-.037c.006-.352-2-1.79-4.095-3.058-2-1.205-3.92-2.088-4.456-2.087a.206.206 0 0 0-.11.023l-.076.112c.025-.033.074-.045.143-.045.53 0 2.34.82 4.465 2.088zm4.032 3.123.002-.001h-.002c.001 0 .015-.014.015-.049a.262.262 0 0 0-.02-.09c-.09-.3-1.574-1.485-4.035-2.97-2.122-1.268-3.937-2.088-4.457-2.088a.3.3 0 0 0-.144.031l.063-.12.007.003-.004-.006a.218.218 0 0 1 .121-.028c.546.001 2.462.884 4.463 2.09 2.096 1.273 4.1 2.695 4.105 3.071a.093.093 0 0 1-.012.046l-.064.1-.018.005c-.004.005-.008.008-.013.008l-.007-.002z" fill="#000" mask="url(#e)"/>
        <path d="M5.213 10.498c0 .808.332 1.54.869 2.076.538.536 1.27.874 2.08.874.816 0 1.554-.33 2.09-.864a2.937 2.937 0 0 0 .87-2.085V6.553H5.212v3.945z" fill="#FAFAFA" mask="url(#e)"/>
        <path d="M6.088 12.568a2.933 2.933 0 0 0 2.074.873c.813 0 1.55-.331 2.084-.863.536-.534.867-1.27.867-2.08l.008-3.937-5.9-.008v3.944c0 .806.33 1.537.867 2.071m-.011.012a2.93 2.93 0 0 1-.872-2.083l.008-3.952 5.916.008v3.946c0 .814-.333 1.553-.871 2.09a2.944 2.944 0 0 1-4.18-.01" fill="#000" mask="url(#e)"/>
        <path d="M5.333 10.498v.001c0 .775.32 1.48.834 1.991a2.828 2.828 0 0 0 4.002.004c.512-.51.831-1.215.831-1.993V6.68H5.337l-.004 3.819z" fill="#CE1126" mask="url(#e)"/>
        <path d="M5.34 10.499c0 .772.32 1.476.833 1.986.514.51 1.22.827 1.996.827.779 0 1.483-.315 1.994-.824a2.796 2.796 0 0 0 .83-1.987L11 6.687l-5.656-.008-.003 3.818v.002zm.822 1.997a2.809 2.809 0 0 1-.837-1.997v-.002l.011-3.825 5.672.007v3.822c0 .78-.32 1.487-.834 1.998a2.833 2.833 0 0 1-4.012-.003z" fill="#000" mask="url(#e)"/>
        <path d="M6.49 10.323v.001c0 .504.19.962.495 1.295.303.333.723.541 1.183.541.462 0 .881-.206 1.184-.538.304-.333.492-.79.492-1.296V7.841H6.493l-.003 2.482z" fill="#FAFAFA" mask="url(#e)"/>
        <path d="M6.498 10.324c0 .502.188.957.492 1.289.302.333.72.54 1.178.54.459 0 .876-.205 1.179-.537.301-.331.489-.787.489-1.29l.007-2.476L6.5 7.842l-.002 2.481zm.48 1.3a1.922 1.922 0 0 1-.495-1.3v-.001h.015-.015l.01-2.489 3.359.008v2.484c0 .507-.19.967-.495 1.3a1.605 1.605 0 0 1-1.189.542 1.61 1.61 0 0 1-1.19-.544z" fill="#000" mask="url(#e)"/>
        <path d="M7.799 10.072c0 .11.041.21.107.285a.352.352 0 0 0 .26.118.35.35 0 0 0 .261-.118.416.416 0 0 0 .108-.285v-.547h-.736v.547z" fill="#0072C6" mask="url(#e)"/>
        <path d="M8.37 9.645a.074.074 0 1 0 0 .147.073.073 0 1 0 0-.147M8.162 9.843a.074.074 0 0 0 0 .148.074.074 0 0 0 0-.148M8.368 10.05a.074.074 0 0 0-.074.075.074.074 0 0 0 .149 0 .073.073 0 0 0-.075-.074M7.966 10.05a.076.076 0 0 0-.076.076c0 .04.034.073.076.073a.074.074 0 0 0 0-.148M7.965 9.645a.074.074 0 0 0-.074.073c0 .04.033.073.074.073.04 0 .074-.032.074-.073a.074.074 0 0 0-.074-.073" fill="#FAFAFA" mask="url(#e)"/>
        <path d="M6.761 10.072c0 .11.042.21.109.285.066.073.16.118.26.118.101 0 .195-.045.261-.118a.419.419 0 0 0 .109-.285v-.547H6.76v.547z" fill="#0072C6" mask="url(#e)"/>
        <path d="M7.333 9.645a.074.074 0 0 0-.075.073c0 .04.034.074.075.074a.073.073 0 0 0 .073-.074.073.073 0 0 0-.073-.073M7.125 9.843a.074.074 0 1 0 0 .148.074.074 0 0 0 0-.148M7.333 10.05a.075.075 0 0 0-.075.075c0 .04.033.073.075.073.04 0 .073-.033.073-.073a.074.074 0 0 0-.073-.074M6.928 10.05a.076.076 0 0 0-.074.076c0 .04.034.073.074.073a.074.074 0 0 0 .075-.073.075.075 0 0 0-.075-.075M6.928 9.645a.074.074 0 0 0-.074.073c0 .04.034.073.074.073.041 0 .074-.032.074-.073a.074.074 0 0 0-.074-.073" fill="#FAFAFA" mask="url(#e)"/>
        <path d="M8.835 10.072c0 .11.042.21.108.285.068.073.16.118.26.118a.354.354 0 0 0 .262-.118.423.423 0 0 0 .109-.285v-.547h-.739v.547z" fill="#0072C6" mask="url(#e)"/>
        <path d="M9.406 9.645a.074.074 0 0 0-.073.073c0 .04.034.074.073.074a.073.073 0 1 0 0-.147M9.199 9.843a.074.074 0 1 0 .002.148.074.074 0 0 0-.002-.148M9.405 10.05a.074.074 0 0 0-.072.075c0 .04.032.073.072.073.041 0 .075-.033.075-.073a.075.075 0 0 0-.075-.074M9.003 10.05a.076.076 0 0 0-.075.076.074.074 0 1 0 .075-.075M9.001 9.645a.074.074 0 0 0-.074.073c0 .04.034.073.074.073a.074.074 0 0 0 .075-.073.074.074 0 0 0-.075-.073" fill="#FAFAFA" mask="url(#e)"/>
        <path d="M7.799 11.32v.002c0 .11.041.21.107.284a.349.349 0 0 0 .26.119.349.349 0 0 0 .261-.118.418.418 0 0 0 .108-.285v-.547l-.736-.001v.546z" fill="#0072C6" mask="url(#e)"/>
        <path d="M8.37 10.893a.074.074 0 1 0-.001.149.074.074 0 0 0 0-.149M8.162 11.093a.074.074 0 0 0 0 .147c.04 0 .074-.033.074-.072a.075.075 0 0 0-.074-.075M8.368 11.3a.075.075 0 0 0-.074.073c0 .041.034.074.074.074a.073.073 0 0 0 .075-.074.074.074 0 0 0-.075-.074M7.966 11.3a.075.075 0 0 0-.076.074c0 .04.034.075.076.075.04 0 .074-.034.074-.075a.075.075 0 0 0-.074-.074M7.965 10.893a.075.075 0 0 0-.074.075c0 .04.033.074.074.074.04 0 .074-.034.074-.074a.075.075 0 0 0-.074-.075" fill="#FAFAFA" mask="url(#e)"/>
        <path d="M7.799 8.822c0 .111.041.213.107.286a.356.356 0 0 0 .26.117.356.356 0 0 0 .261-.116.423.423 0 0 0 .108-.286v-.547h-.736v.546z" fill="#0072C6" mask="url(#e)"/>
        <path d="M8.37 8.395a.074.074 0 0 0-.075.074c0 .041.033.074.075.074a.073.073 0 0 0 .073-.074.073.073 0 0 0-.073-.074M8.162 8.595a.074.074 0 0 0 0 .147c.04 0 .074-.033.074-.075a.074.074 0 0 0-.074-.072M8.368 8.801a.074.074 0 1 0 0 .148.073.073 0 0 0 .075-.073.073.073 0 0 0-.075-.075M7.966 8.802a.075.075 0 0 0-.076.074c0 .041.034.073.076.073.04 0 .074-.032.074-.073a.075.075 0 0 0-.074-.074M7.965 8.395a.074.074 0 0 0-.074.074c0 .04.033.074.074.074.04 0 .074-.033.074-.074a.074.074 0 0 0-.074-.074" fill="#FAFAFA" mask="url(#e)"/>
        <path fill="#FCD856" mask="url(#e)" d="M10.015 7.67h.818l-.038-.315h-.747z"/>
        <path d="m10.998 8.055-.037-.674-.896-.016-.04.672.973.018zm-.982.015v-.016l-.008-.005.049-.702.914.015.037.708h-.992z" fill="#000" mask="url(#e)"/>
        <path d="M10.42 7.382c.102.001.205.166.206.288h-.407c0-.128.1-.288.2-.288" fill="#FCD856" mask="url(#e)"/>
        <path d="M10.211 7.67c.002-.131.1-.295.208-.296v.015c-.092 0-.193.157-.2.273l.4.007c0-.117-.105-.28-.2-.28v-.016c.11.003.212.171.207.305l-.415-.009z" fill="#000" mask="url(#e)"/>
        <path d="M10.42 7.451s.12.058.12.22h-.232c0-.162.112-.22.112-.22" fill="#FCD856" mask="url(#e)"/>
        <path d="M10.317 7.922c.244 0 .246 0 .49.017a.507.507 0 0 0-.244-.46.537.537 0 0 0-.246.443m-.018.017c0-.363.254-.496.256-.496l.008.017.008-.017c.002 0 .27.131.253.513-.263 0-.26 0-.525-.017" fill="#000" mask="url(#e)"/>
        <path d="M10.02 7.215h.807c.017 0 .032.014.032.034 0 .02-.015.036-.032.036h-.807c-.018 0-.03-.016-.03-.036 0-.02.012-.034.03-.034" fill="#FCD856" mask="url(#e)"/>
        <path d="M10.02 7.292c-.023 0-.038-.02-.038-.043 0-.024.016-.043.037-.043v.016c-.013 0-.022.01-.023.027.001.017.012.027.023.027h.808c.011 0 .024-.011.024-.027-.001-.016-.012-.027-.024-.027h-.808v-.016h.808c.021 0 .04.018.04.043 0 .024-.018.043-.04.043h-.808z" fill="#000" mask="url(#e)"/>
        <path d="M9.999 7.671h.85c.017 0 .032.016.032.037 0 .022-.015.037-.033.037H10c-.019 0-.033-.015-.033-.037 0-.02.014-.037.033-.037" fill="#FCD856" mask="url(#e)"/>
        <path d="M9.999 7.752c-.024 0-.041-.02-.041-.044 0-.024.017-.044.04-.044v.015c-.013 0-.025.012-.025.029 0 .018.012.03.026.03h.85c.011 0 .023-.011.024-.03-.001-.017-.013-.029-.025-.029h-.85v-.015h.85c.022 0 .04.02.04.044 0 .024-.018.044-.04.044h-.85z" fill="#000" mask="url(#e)"/>
        <path d="M10.037 7.285h.773c.016 0 .029.015.029.034 0 .02-.013.035-.03.035h-.772c-.016 0-.03-.015-.03-.035 0-.019.014-.034.03-.034" fill="#FCD856" mask="url(#e)"/>
        <path d="M10.037 7.362c-.021 0-.037-.02-.037-.043 0-.023.016-.042.037-.042v.015c-.01 0-.021.011-.021.027 0 .017.01.028.02.028h.773c.012 0 .021-.01.022-.028 0-.016-.01-.027-.022-.027h-.772v-.015h.772c.022 0 .038.02.038.042 0 .023-.016.043-.038.043h-.772z" fill="#000" mask="url(#e)"/>
        <path fill="#FCD856" mask="url(#e)" d="m10.522 6.885.013.33-.215-.001.016-.329z"/>
        <path d="m10.33 7.596.452.021-.028-.705-.373-.016-.051.7zm-.018.017.052-.737.407.003v.017l.016-.002.012.738-.487-.019z" fill="#000" mask="url(#e)"/>
        <path d="M10.294 6.759h.06v.044h.044v-.044h.06v.044h.045v-.044h.062v.1c0 .015-.013.026-.028.026h-.216c-.013 0-.027-.012-.027-.026v-.1z" fill="#FCD856" mask="url(#e)"/>
        <path d="M10.32 6.986c0 .02.023.041.042.041h.473c.023-.003.04-.017.044-.04l.017-.204-.12-.016-.016.113-.114-.017.017-.08-.117-.016-.016.113-.114-.017.017-.08h-.113v.203zm.042.074a.078.078 0 0 1-.076-.074v-.219h.016v-.016l.148.016-.017.078.08.018.017-.112.148.016-.015.078.08.018.017-.112.15.016v.22a.076.076 0 0 1-.075.073h-.473z" fill="#000" mask="url(#e)"/>
        <path d="M10.406 7.024c-.002-.031.044-.032.044 0v.075h-.044v-.075z" fill="#000" mask="url(#e)"/>
        <path d="M10.556 6.916h.061v.044h.044v-.045h.06v.045h.042v-.045h.063v.101c0 .016-.013.026-.027.026h-.215c-.014 0-.028-.012-.028-.026v-.1z" fill="#FCD856" mask="url(#e)"/>
        <path d="M10.582 7.145c0 .02.021.037.045.037h.47c.022 0 .042-.013.042-.037l.016-.204-.12-.017-.016.115-.11-.018.017-.08-.117-.017-.015.115-.112-.018.017-.078h-.117v.202zm.045.071c-.04 0-.079-.029-.079-.07v-.219h.016v-.016l.152.016-.017.077.076.017.02-.114.145.017-.014.08.076.017.017-.114.154.017v.221c0 .046-.04.071-.076.071h-.47z" fill="#000" mask="url(#e)"/>
        <path fill="#FCD856" mask="url(#e)" d="m10.788 7.042.005.173h-.204l.006-.173z"/>
        <path d="m10.597 7.41.43.02-.01-.364-.39-.014-.03.359zm-.017.019.031-.395h.423v.016l.015-.001-.006.396-.463-.016z" fill="#000" mask="url(#e)"/>
        <path d="M10.028 6.916h.06v.044h.045v-.045l.059.001v.044h.044v-.045h.061v.101c0 .016-.012.026-.026.026h-.215c-.013 0-.028-.012-.028-.026v-.1z" fill="#FCD856" mask="url(#e)"/>
        <path d="M10.054 7.146c0 .017.024.036.045.036h.47c.02 0 .039-.013.04-.036l.016-.205-.117-.017-.017.115-.112-.016.015-.08-.113-.02-.016.116-.115-.016.017-.08h-.113v.203zm.045.072c-.04-.002-.077-.031-.078-.072v-.221h.017v-.016l.146.016-.017.079.08.019.018-.115.146.017-.015.079.078.019.017-.115.15.016v.222a.071.071 0 0 1-.072.072h-.47z" fill="#000" mask="url(#e)"/>
        <path fill="#FCD856" mask="url(#e)" d="m10.258 7.042.007.173h-.204l.006-.173z"/>
        <path d="m10.07 7.411.428.02-.012-.364-.388-.015-.029.36zm-.017.018.03-.396h.418v.02h.016l-.002.394-.462-.018zM10.67 7.116c-.001-.031.043-.031.043 0v.047h-.043v-.047z" fill="#000" mask="url(#e)"/>
        <path d="M10.142 7.116c-.001-.031.043-.031.042 0v.047h-.042v-.047z" fill="#000" mask="url(#e)"/>
        <path fill="#FCD856" mask="url(#e)" d="M10.015 10.04h.818l-.038-.316h-.747z"/>
        <path d="m10.998 10.427-.037-.678-.896-.015-.04.674.973.02zm-.982.014v-.016l-.008-.003.049-.706.914.015.037.71h-.992z" fill="#000" mask="url(#e)"/>
        <path d="M10.42 9.75c.102.001.205.167.206.29h-.407c0-.13.1-.29.2-.29" fill="#FCD856" mask="url(#e)"/>
        <path d="M10.211 10.04c.002-.133.1-.295.208-.297v.015c-.092 0-.193.156-.2.274l.4.008c0-.12-.105-.283-.2-.282v-.016c.11.004.212.172.207.306l-.415-.008z" fill="#000" mask="url(#e)"/>
        <path d="M10.42 9.82s.12.056.12.22h-.232c0-.164.112-.22.112-.22" fill="#FCD856" mask="url(#e)"/>
        <path d="M10.317 10.293c.244 0 .246 0 .49.018 0-.311-.2-.44-.244-.463a.534.534 0 0 0-.246.445m-.018.018c0-.367.254-.498.256-.498l.008.016.008-.016c.002 0 .27.129.253.514-.263 0-.26 0-.525-.016" fill="#000" mask="url(#e)"/>
        <path d="M10.02 9.585h.807c.017 0 .032.014.032.033 0 .02-.015.036-.032.036h-.807c-.018 0-.03-.015-.03-.036 0-.019.012-.033.03-.033" fill="#FCD856" mask="url(#e)"/>
        <path d="M10.02 9.662c-.023 0-.038-.02-.038-.044 0-.023.016-.041.037-.041v.016c-.013 0-.022.009-.023.025.001.018.012.029.023.029h.808c.011 0 .024-.012.024-.029-.001-.015-.012-.025-.024-.025h-.808v-.016h.808c.021 0 .04.018.04.041 0 .024-.018.043-.04.044h-.808z" fill="#000" mask="url(#e)"/>
        <path d="M9.999 10.042h.85c.017 0 .032.016.032.036 0 .022-.015.037-.033.037H10c-.019 0-.033-.015-.033-.037 0-.02.014-.036.033-.036" fill="#FCD856" mask="url(#e)"/>
        <path d="M9.999 10.123c-.024 0-.041-.02-.041-.045 0-.024.017-.044.04-.044v.015c-.013 0-.025.012-.025.03 0 .017.012.028.026.028h.85c.011 0 .023-.01.024-.029-.001-.017-.013-.029-.025-.029h-.85v-.015h.85c.022 0 .04.02.04.044 0 .025-.018.045-.04.045h-.85z" fill="#000" mask="url(#e)"/>
        <path d="M10.037 9.654h.773c.016 0 .029.015.029.034 0 .02-.013.035-.03.035h-.772c-.016 0-.03-.015-.03-.035 0-.02.014-.034.03-.034" fill="#FCD856" mask="url(#e)"/>
        <path d="M10.037 9.73c-.021 0-.037-.019-.037-.042 0-.021.016-.041.037-.041v.016c-.01 0-.021.01-.021.025 0 .016.01.028.02.028h.773c.012 0 .021-.012.022-.028 0-.016-.01-.025-.022-.025h-.772v-.016h.772c.022 0 .038.02.038.04 0 .024-.016.043-.038.043h-.772z" fill="#000" mask="url(#e)"/>
        <path fill="#FCD856" mask="url(#e)" d="m10.522 9.254.013.33h-.215l.016-.33z"/>
        <path d="m10.33 9.969.452.018-.028-.707-.373-.014-.051.703zm-.018.014.052-.738.407.003v.016l.016-.001.012.742-.487-.022z" fill="#000" mask="url(#e)"/>
        <path d="M10.294 9.128h.06v.044h.044v-.044h.06v.044h.045v-.044h.062v.1c0 .016-.013.026-.028.026h-.216c-.013 0-.027-.013-.027-.026v-.1z" fill="#FCD856" mask="url(#e)"/>
        <path d="M10.32 9.354c0 .018.023.042.042.042h.473c.023-.003.04-.017.044-.042l.017-.2-.12-.018-.016.113-.114-.015.017-.08-.117-.018-.016.113-.114-.015.017-.08h-.113v.2zm.042.074a.078.078 0 0 1-.076-.074v-.218h.016V9.12l.148.015-.017.078.08.02.017-.113.148.015-.015.078.08.02.017-.113.15.015v.218a.074.074 0 0 1-.075.074h-.473z" fill="#000" mask="url(#e)"/>
        <path d="M10.406 9.392c-.002-.03.044-.032.044 0v.077h-.044v-.077z" fill="#000" mask="url(#e)"/>
        <path d="M10.556 9.285h.061v.043h.044v-.044h.06v.044h.042v-.044h.063v.101c0 .016-.013.026-.027.026h-.215c-.014 0-.028-.012-.028-.026v-.1z" fill="#FCD856" mask="url(#e)"/>
        <path d="M10.582 9.514c0 .018.021.038.045.038h.47c.022 0 .042-.014.042-.038l.016-.205-.12-.015-.016.113-.11-.017.017-.081-.117-.015-.015.113-.112-.017.017-.079h-.117v.203zm.045.071c-.04 0-.079-.03-.079-.071v-.219h.016v-.017l.152.017-.017.078.076.017.02-.114.145.018-.014.079.076.017.017-.114.154.018v.22c0 .046-.04.071-.076.071h-.47z" fill="#000" mask="url(#e)"/>
        <path fill="#FCD856" mask="url(#e)" d="m10.788 9.41.005.175h-.204l.006-.175z"/>
        <path d="m10.597 9.784.43.018-.01-.367-.39-.015-.03.364zm-.017.016.031-.398h.423v.017h.015l-.006.398-.463-.017z" fill="#000" mask="url(#e)"/>
        <path d="M10.028 9.285h.06v.043h.045v-.044h.059v.044h.044v-.044h.061v.101c0 .016-.012.026-.026.026h-.215c-.013 0-.028-.012-.028-.026v-.1z" fill="#FCD856" mask="url(#e)"/>
        <path d="M10.054 9.516c0 .017.024.035.045.035h.47c.02 0 .039-.012.04-.035l.016-.205-.117-.018-.017.116-.112-.019.015-.079-.113-.018-.016.116-.115-.019.017-.079h-.113v.205zm.045.07c-.04-.002-.077-.029-.078-.07v-.222h.017v-.016l.146.016-.017.079.08.017.018-.114.146.018-.015.079.078.017.017-.114.15.017v.223c0 .044-.035.07-.072.07h-.47z" fill="#000" mask="url(#e)"/>
        <path fill="#FCD856" mask="url(#e)" d="m10.258 9.41.007.175h-.204l.006-.175z"/>
        <path d="m10.07 9.784.428.017-.012-.366-.388-.015-.029.364zm-.017.016.03-.398h.418v.02l.016-.002-.002.398-.462-.018zM10.67 9.485c-.001-.031.043-.031.043 0v.048h-.043v-.048z" fill="#000" mask="url(#e)"/>
        <path d="M10.142 9.485c-.001-.031.043-.031.042 0v.048h-.042v-.048z" fill="#000" mask="url(#e)"/>
        <path fill="#FCD856" mask="url(#e)" d="M5.503 10.04h.818l-.038-.316h-.748z"/>
        <path d="M6.485 10.427 6.45 9.75l-.898-.015-.037.674.97.02zm-.98.014v-.016l-.01-.003.049-.706.915.015.036.71h-.99z" fill="#000" mask="url(#e)"/>
        <path d="M5.907 9.75c.103.001.205.167.206.29h-.406c.001-.13.1-.29.2-.29" fill="#FCD856" mask="url(#e)"/>
        <path d="M5.7 10.04c0-.133.1-.295.207-.297v.015c-.092 0-.192.156-.2.274l.399.008c-.001-.12-.105-.283-.199-.282v-.016c.11.004.21.172.206.306L5.7 10.04z" fill="#000" mask="url(#e)"/>
        <path d="M5.909 9.82s.117.056.117.22h-.23c0-.164.113-.22.113-.22" fill="#FCD856" mask="url(#e)"/>
        <path d="M5.806 10.293c.243 0 .246 0 .486.018a.513.513 0 0 0-.24-.463.525.525 0 0 0-.246.445m-.018.018c0-.367.254-.498.256-.498l.008.016.007-.016c.001 0 .268.129.25.514-.26 0-.257 0-.521-.016" fill="#000" mask="url(#e)"/>
        <path d="M5.509 9.585h.807c.016 0 .03.014.03.033 0 .02-.014.036-.03.036h-.807c-.019 0-.032-.015-.032-.036 0-.019.013-.033.032-.033" fill="#FCD856" mask="url(#e)"/>
        <path d="M5.508 9.662c-.023 0-.039-.02-.039-.044 0-.023.017-.041.039-.041v.016c-.014 0-.023.009-.024.025 0 .018.011.029.024.029h.808c.01 0 .022-.012.022-.029 0-.015-.01-.025-.022-.025h-.808v-.016h.808c.02 0 .038.018.038.041 0 .024-.017.043-.038.044h-.808z" fill="#000" mask="url(#e)"/>
        <path d="M5.488 10.042h.848c.018 0 .032.016.032.036 0 .022-.014.037-.032.037h-.848c-.02 0-.034-.015-.034-.037 0-.02.015-.036.034-.036" fill="#FCD856" mask="url(#e)"/>
        <path d="M5.487 10.123c-.023 0-.041-.02-.041-.045 0-.024.017-.044.041-.044v.015c-.013 0-.026.012-.026.03 0 .017.012.028.026.028h.849c.013 0 .024-.01.024-.029 0-.017-.011-.029-.024-.029h-.849v-.015h.849c.023 0 .04.02.04.044 0 .025-.017.045-.04.045h-.849z" fill="#000" mask="url(#e)"/>
        <path d="M5.524 9.654h.774c.017 0 .029.015.029.034 0 .02-.012.035-.03.035h-.773c-.014 0-.029-.015-.029-.035 0-.02.015-.034.03-.034" fill="#FCD856" mask="url(#e)"/>
        <path d="M5.524 9.73c-.02 0-.036-.019-.036-.042 0-.021.016-.041.036-.041v.016c-.01 0-.02.01-.02.025 0 .016.01.028.02.028h.774c.01 0 .02-.012.02-.028s-.01-.025-.02-.025h-.774v-.016h.774c.022 0 .036.02.036.04 0 .024-.014.043-.036.043h-.774z" fill="#000" mask="url(#e)"/>
        <path fill="#FCD856" mask="url(#e)" d="m6.01 9.254.013.33h-.215l.016-.33z"/>
        <path d="m5.818 9.969.452.018-.028-.707-.373-.014-.051.703zm-.017.014.05-.738.408.003v.016l.015-.001.014.742-.487-.022z" fill="#000" mask="url(#e)"/>
        <path d="M5.782 9.128h.06v.044h.044v-.044h.06v.044h.045v-.044h.06v.1c0 .016-.012.026-.026.026H5.81c-.014 0-.028-.013-.028-.026v-.1z" fill="#FCD856" mask="url(#e)"/>
        <path d="M5.808 9.354c0 .018.024.042.043.042h.472c.022-.003.04-.017.042-.042l.016-.2-.117-.018-.015.113-.115-.015.017-.08-.116-.018-.017.113-.113-.015.016-.08h-.113v.2zm.043.074a.08.08 0 0 1-.077-.074v-.218h.017V9.12l.147.015-.017.078.08.02.017-.113.148.015-.015.078.08.02.018-.113.15.015v.218c0 .045-.039.074-.076.074h-.472z" fill="#000" mask="url(#e)"/>
        <path d="M5.894 9.392c-.001-.03.044-.032.044 0v.077h-.044v-.077z" fill="#000" mask="url(#e)"/>
        <path d="M6.043 9.285h.061v.043h.044v-.044h.06v.044h.044v-.044h.063v.101c0 .016-.014.026-.028.026h-.215c-.015 0-.029-.012-.029-.026v-.1z" fill="#FCD856" mask="url(#e)"/>
        <path d="M6.07 9.514c0 .018.02.038.043.038h.471c.023 0 .044-.014.044-.038l.017-.205-.122-.015-.015.113-.113-.017.017-.081-.116-.015-.016.113-.113-.017.017-.079H6.07v.203zm.043.071c-.04 0-.077-.03-.077-.071v-.219h.015v-.017l.15.017-.017.078.078.017.018-.114.148.018-.016.079.08.017.016-.114.154.018v.22c0 .046-.04.071-.078.071h-.47z" fill="#000" mask="url(#e)"/>
        <path fill="#FCD856" mask="url(#e)" d="m6.276 9.41.005.175h-.205l.006-.175z"/>
        <path d="m6.086 9.784.432.018-.011-.367-.392-.015-.03.364zm-.018.016.03-.398h.426v.017h.015l-.005.398-.466-.017z" fill="#000" mask="url(#e)"/>
        <path d="M5.516 9.285h.059v.043h.045v-.044h.06v.044h.044v-.044h.062v.101c0 .016-.013.026-.026.026h-.215c-.015 0-.029-.012-.029-.026v-.1z" fill="#FCD856" mask="url(#e)"/>
        <path d="M5.54 9.516c0 .017.024.035.047.035h.47a.039.039 0 0 0 .04-.035l.017-.205-.117-.018-.018.116-.113-.019.017-.079-.114-.018-.018.116-.115-.019.017-.079H5.54v.205zm.047.07c-.04-.002-.076-.029-.078-.07v-.222h.016v-.016l.145.016-.017.079.08.017.018-.114.148.018-.015.079.079.017.016-.114.15.017v.223c0 .044-.035.07-.071.07h-.471z" fill="#000" mask="url(#e)"/>
        <path fill="#FCD856" mask="url(#e)" d="m5.747 9.41.006.175h-.206l.008-.175z"/>
        <path d="m5.556 9.784.43.017-.011-.366-.388-.015-.031.364zM5.54 9.8l.03-.398h.422v.02l.015-.002-.003.398L5.54 9.8zM6.157 9.485c-.001-.031.044-.031.044 0v.048h-.044v-.048z" fill="#000" mask="url(#e)"/>
        <path d="M5.63 9.485c-.002-.031.043-.031.042 0v.048h-.043v-.048z" fill="#000" mask="url(#e)"/>
        <path fill="#FCD856" mask="url(#e)" d="M7.758 7.67h.82l-.038-.315h-.749z"/>
        <path d="m8.74 8.056-.035-.675-.896-.016-.04.672.972.02zm-.98.014v-.016l-.01-.004.05-.703.914.017.037.706H7.76z" fill="#000" mask="url(#e)"/>
        <path d="M8.163 7.382c.102.001.205.167.207.289h-.407c.001-.128.1-.29.2-.29" fill="#FCD856" mask="url(#e)"/>
        <path d="M7.956 7.67c.001-.131.1-.295.206-.295v.015c-.091 0-.19.156-.199.272l.399.008c0-.118-.105-.281-.2-.28v-.016c.11.003.212.17.208.304l-.414-.008z" fill="#000" mask="url(#e)"/>
        <path d="M8.164 7.451s.12.058.12.22h-.232c0-.162.112-.22.112-.22" fill="#FCD856" mask="url(#e)"/>
        <path d="M8.06 7.922c.244 0 .246 0 .488.02a.512.512 0 0 0-.242-.463.535.535 0 0 0-.245.443m-.016.02c0-.366.249-.499.253-.499l.008.017.006-.017c.003 0 .27.131.254.513-.262 0-.26 0-.521-.015" fill="#000" mask="url(#e)"/>
        <path d="M7.763 7.215h.809c.016 0 .031.014.031.034 0 .02-.015.036-.031.036h-.809c-.018 0-.03-.016-.03-.036 0-.02.012-.034.03-.034" fill="#FCD856" mask="url(#e)"/>
        <path d="M7.763 7.292c-.023 0-.039-.02-.039-.043 0-.024.016-.042.04-.042v.015c-.014 0-.024.01-.025.027 0 .017.012.028.024.028h.809c.01 0 .023-.012.023-.028s-.011-.027-.023-.027h-.809v-.015h.809c.02 0 .038.017.038.042 0 .024-.017.043-.038.043h-.809z" fill="#000" mask="url(#e)"/>
        <path d="M7.742 7.672h.85c.018 0 .032.016.032.036 0 .022-.014.037-.031.037h-.85c-.02 0-.034-.015-.034-.037 0-.02.014-.036.033-.036" fill="#FCD856" mask="url(#e)"/>
        <path d="M7.742 7.753c-.023 0-.041-.02-.041-.045 0-.024.017-.044.041-.044v.015c-.013 0-.025.013-.026.03 0 .017.012.028.026.028h.85c.012 0 .023-.01.024-.029-.001-.016-.012-.029-.023-.029h-.85v-.015h.85c.021 0 .038.02.038.044 0 .025-.017.045-.038.045h-.85z" fill="#000" mask="url(#e)"/>
        <path d="M7.78 7.285h.775c.017 0 .028.015.028.034 0 .02-.011.036-.028.036H7.78c-.016 0-.03-.016-.03-.036 0-.019.014-.034.03-.034" fill="#FCD856" mask="url(#e)"/>
        <path d="M7.78 7.362c-.02 0-.037-.02-.037-.043 0-.022.017-.042.038-.042v.016c-.01 0-.023.01-.023.026 0 .017.012.028.023.028h.773c.011 0 .02-.01.021-.028 0-.016-.01-.026-.021-.026H7.78v-.016h.773c.022 0 .037.02.037.042 0 .023-.015.043-.037.043H7.78z" fill="#000" mask="url(#e)"/>
        <path fill="#FCD856" mask="url(#e)" d="m8.265 6.885.014.33-.215-.001.016-.329z"/>
        <path d="m8.073 7.597.45.02-.027-.705-.374-.015-.049.7zm-.016.016.05-.737.405.003v.017h.016l.013.737-.484-.02z" fill="#000" mask="url(#e)"/>
        <path d="M8.039 6.759h.058v.044h.044v-.044h.06v.044h.045v-.044h.062v.1c0 .016-.013.026-.028.026h-.215c-.013 0-.026-.012-.026-.026v-.1z" fill="#FCD856" mask="url(#e)"/>
        <path d="M8.064 6.986c0 .019.024.04.04.04h.473c.022-.002.042-.015.043-.04l.016-.201-.12-.018-.014.114-.114-.018.016-.078-.115-.018-.018.114-.112-.018.016-.078h-.111v.2zm.04.075a.079.079 0 0 1-.073-.075v-.22h.015v-.014l.146.015-.017.078.08.018.016-.111.148.015-.015.078.079.018.019-.111.15.015v.219a.076.076 0 0 1-.075.075h-.472z" fill="#000" mask="url(#e)"/>
        <path d="M8.15 7.024c-.001-.031.043-.032.043 0v.075H8.15v-.075z" fill="#000" mask="url(#e)"/>
        <path d="M8.3 6.916h.06v.044h.044v-.045h.06v.045h.045v-.045h.062v.101c0 .016-.013.026-.027.026h-.216c-.015 0-.028-.012-.028-.026v-.1z" fill="#FCD856" mask="url(#e)"/>
        <path d="M8.325 7.146c0 .02.022.038.045.038h.473c.022 0 .042-.015.042-.038l.018-.205-.122-.016-.016.114-.112-.017.017-.08-.116-.017-.016.114-.113-.017.016-.079h-.116v.203zm.045.07c-.04 0-.079-.029-.079-.07v-.219h.018v-.016l.15.016-.018.077.078.018.02-.115.147.018-.016.08.078.017.017-.115.154.018v.221c0 .046-.039.07-.076.07H8.37z" fill="#000" mask="url(#e)"/>
        <path fill="#FCD856" mask="url(#e)" d="m8.532 7.042.006.173h-.206l.006-.173z"/>
        <path d="m8.341 7.411.433.02-.01-.366-.392-.014-.03.36zm-.018.018.033-.395h.424v.017l.017-.002-.006.395-.468-.015z" fill="#000" mask="url(#e)"/>
        <path d="M7.772 6.916h.06v.044h.044v-.045l.06.001v.044h.044v-.045h.062v.101c0 .016-.012.026-.027.026H7.8c-.014 0-.028-.012-.028-.026v-.1z" fill="#FCD856" mask="url(#e)"/>
        <path d="M7.797 7.146c0 .018.024.036.046.036h.472c.022 0 .039-.013.04-.036l.017-.204-.118-.018-.018.116-.113-.017.017-.08-.114-.02-.017.117-.116-.017.016-.08h-.112v.203zm.046.072c-.04-.002-.078-.03-.08-.072v-.22h.018v-.015l.146.016-.018.077.082.019.018-.115.148.019-.014.077.077.019.016-.115.152.016v.222a.071.071 0 0 1-.073.072h-.472z" fill="#000" mask="url(#e)"/>
        <path fill="#FCD856" mask="url(#e)" d="m8.003 7.042.006.173h-.205l.006-.173z"/>
        <path d="m7.813 7.412.43.018-.01-.363-.392-.015-.028.36zm-.017.017.03-.395h.422v.019l.016-.001-.003.397-.465-.02zM8.414 7.116c-.002-.031.043-.031.043 0v.047h-.043v-.047z" fill="#000" mask="url(#e)"/>
        <path d="M7.885 7.116c-.001-.031.044-.031.043 0v.047h-.043v-.047z" fill="#000" mask="url(#e)"/>
        <path fill="#FCD856" mask="url(#e)" d="M5.503 7.67h.818l-.038-.315h-.748z"/>
        <path d="m6.485 8.055-.035-.674-.898-.016-.037.672.97.018zm-.98.015v-.016l-.01-.005.049-.702.915.015.036.708h-.99z" fill="#000" mask="url(#e)"/>
        <path d="M5.907 7.382c.103.001.205.166.206.288h-.406c.001-.128.1-.288.2-.288" fill="#FCD856" mask="url(#e)"/>
        <path d="M5.7 7.67c0-.131.1-.295.207-.296v.015c-.092 0-.192.157-.2.273l.399.007c-.001-.117-.105-.28-.199-.28v-.016c.11.003.21.171.206.305L5.7 7.669z" fill="#000" mask="url(#e)"/>
        <path d="M5.909 7.451s.117.058.117.22h-.23c0-.162.113-.22.113-.22" fill="#FCD856" mask="url(#e)"/>
        <path d="M5.806 7.922c.243 0 .246 0 .486.017a.511.511 0 0 0-.24-.46.527.527 0 0 0-.246.443m-.018.017c0-.363.254-.496.256-.496l.008.017.007-.017c.001 0 .268.131.25.513-.26 0-.257 0-.521-.017" fill="#000" mask="url(#e)"/>
        <path d="M5.509 7.215h.807c.016 0 .03.014.03.034 0 .02-.014.036-.03.036h-.807c-.019 0-.032-.016-.032-.036 0-.02.013-.034.032-.034" fill="#FCD856" mask="url(#e)"/>
        <path d="M5.508 7.292c-.023 0-.039-.02-.039-.043 0-.024.017-.043.039-.043v.016c-.014 0-.023.01-.024.027 0 .017.011.027.024.027h.808c.01 0 .022-.011.022-.027s-.01-.027-.022-.027h-.808v-.016h.808c.02 0 .038.018.038.043 0 .024-.017.043-.038.043h-.808z" fill="#000" mask="url(#e)"/>
        <path d="M5.488 7.671h.848c.018 0 .032.016.032.037 0 .022-.014.037-.032.037h-.848c-.02 0-.034-.015-.034-.037 0-.02.015-.037.034-.037" fill="#FCD856" mask="url(#e)"/>
        <path d="M5.487 7.752c-.023 0-.041-.02-.041-.044 0-.024.017-.044.041-.044v.015c-.013 0-.026.012-.026.029 0 .018.012.03.026.03h.849c.013 0 .024-.011.024-.03 0-.017-.011-.029-.024-.029h-.849v-.015h.849c.023 0 .04.02.04.044 0 .024-.017.044-.04.044h-.849z" fill="#000" mask="url(#e)"/>
        <path d="M5.524 7.285h.774c.017 0 .029.015.029.034 0 .02-.012.035-.03.035h-.773c-.014 0-.029-.015-.029-.035 0-.019.015-.034.03-.034" fill="#FCD856" mask="url(#e)"/>
        <path d="M5.524 7.362c-.02 0-.036-.02-.036-.043 0-.023.016-.042.036-.042v.015c-.01 0-.02.011-.02.027 0 .017.01.028.02.028h.774c.01 0 .02-.01.02-.028 0-.016-.01-.027-.02-.027h-.774v-.015h.774c.022 0 .036.02.036.042 0 .023-.014.043-.036.043h-.774z" fill="#000" mask="url(#e)"/>
        <path fill="#FCD856" mask="url(#e)" d="m6.01 6.885.013.33-.215-.001.016-.329z"/>
        <path d="m5.818 7.596.452.021-.028-.705-.373-.016-.051.7zm-.017.017.05-.737.408.003v.017l.015-.002.014.738-.487-.019z" fill="#000" mask="url(#e)"/>
        <path d="M5.782 6.759h.06v.044h.044v-.044h.06v.044h.045v-.044h.06v.1c0 .015-.012.026-.026.026H5.81c-.014 0-.028-.012-.028-.026v-.1z" fill="#FCD856" mask="url(#e)"/>
        <path d="M5.808 6.986c0 .02.024.041.043.041h.472c.022-.003.04-.017.042-.04l.016-.204-.117-.016-.015.113-.115-.017.017-.08-.116-.016-.017.113-.113-.017.016-.08h-.113v.203zm.043.074a.08.08 0 0 1-.077-.074v-.219h.017v-.016l.147.016-.017.078.08.018.017-.112.148.016-.015.078.08.018.018-.112.15.016v.22c0 .042-.039.073-.076.073h-.472z" fill="#000" mask="url(#e)"/>
        <path d="M5.894 7.024c-.001-.031.044-.032.044 0v.075h-.044v-.075z" fill="#000" mask="url(#e)"/>
        <path d="M6.043 6.916h.061v.044h.044v-.045h.06v.045h.044v-.045h.063v.101c0 .016-.014.026-.028.026h-.215c-.015 0-.029-.012-.029-.026v-.1z" fill="#FCD856" mask="url(#e)"/>
        <path d="M6.07 7.145c0 .02.02.037.043.037h.471c.023 0 .044-.013.044-.037l.017-.204-.122-.017-.015.115-.113-.018.017-.08-.116-.017-.016.115-.113-.018.017-.078H6.07v.202zm.043.071c-.04 0-.077-.029-.077-.07v-.219h.015v-.016l.15.016-.017.077.078.017.018-.114.148.017-.016.08.08.017.016-.114.154.017v.221c0 .046-.04.071-.078.071h-.47z" fill="#000" mask="url(#e)"/>
        <path fill="#FCD856" mask="url(#e)" d="m6.276 7.042.005.173h-.205l.006-.173z"/>
        <path d="m6.086 7.41.432.02-.011-.364-.392-.014-.03.359zm-.018.019.03-.395h.426v.016l.015-.001-.005.396-.466-.016z" fill="#000" mask="url(#e)"/>
        <path d="M5.516 6.916h.059v.044h.045v-.045l.06.001v.044h.044v-.045h.062v.101c0 .016-.013.026-.026.026h-.215c-.015 0-.029-.012-.029-.026v-.1z" fill="#FCD856" mask="url(#e)"/>
        <path d="M5.54 7.146c0 .017.024.036.047.036h.47a.04.04 0 0 0 .04-.036l.017-.205-.117-.017-.018.115-.113-.016.017-.08-.114-.02-.018.116-.115-.016.017-.08H5.54v.203zm.047.072c-.04-.002-.076-.031-.078-.072v-.221h.016v-.016l.145.016-.017.079.08.019.018-.115.148.017-.015.079.079.019.016-.115.15.016v.222a.071.071 0 0 1-.071.072h-.471z" fill="#000" mask="url(#e)"/>
        <path fill="#FCD856" mask="url(#e)" d="m5.747 7.042.006.173h-.206l.008-.173z"/>
        <path d="m5.556 7.411.43.02-.011-.364-.388-.015-.031.36zm-.015.018.03-.396h.422v.02h.015l-.003.394-.464-.018zM6.157 7.116c-.001-.031.044-.031.044 0v.047h-.044v-.047z" fill="#000" mask="url(#e)"/>
        <path d="M5.63 7.116c-.002-.031.043-.031.042 0v.047h-.043v-.047z" fill="#000" mask="url(#e)"/>
        <path fill="#FCD856" mask="url(#e)" d="m6.461 12.478.578-.58-.25-.194-.527.527z"/>
        <path d="m7.242 11.962-.303-.25-.67.657.247.306.726-.713zm-.719.734-.007-.007-.009.006-.251-.328.683-.67.317.263-.733.736z" fill="#000" mask="url(#e)"/>
        <path d="M6.543 11.987c.072-.072.262-.027.35.06l-.287.285c-.09-.092-.134-.274-.063-.345" fill="#FCD856" mask="url(#e)"/>
        <path d="M6.6 12.338c-.092-.095-.138-.279-.063-.356l.01.011c-.064.065-.025.245.052.334l.289-.276c-.086-.084-.276-.125-.34-.058l-.011-.01c.08-.077.27-.03.362.068l-.3.287z" fill="#000" mask="url(#e)"/>
        <path d="M6.591 12.035s.125-.043.24.072l-.163.163c-.115-.115-.077-.235-.077-.235" fill="#FCD856" mask="url(#e)"/>
        <path d="M6.764 12.553c.173-.17.174-.172.357-.33-.219-.22-.452-.17-.5-.156-.009.044-.058.268.143.486m0 .024c-.259-.257-.174-.527-.172-.529l.016.004-.005-.016c.001 0 .282-.097.542.187-.185.184-.184.183-.38.354" fill="#000" mask="url(#e)"/>
        <path d="m6.142 12.152.57-.571c.012-.011.033-.012.048.002.014.014.014.036.002.047l-.571.572c-.012.012-.032.01-.047-.003-.014-.015-.015-.035-.002-.047" fill="#FCD856" mask="url(#e)"/>
        <path d="M6.197 12.206c-.017.016-.043.014-.059-.002s-.018-.041-.002-.057l.005.005.006.006c-.009.01-.009.023.002.036.012.01.028.01.037.003l.571-.572c.008-.008.008-.025-.003-.037-.012-.01-.027-.01-.036-.001l-.571.571-.006-.006-.005-.005.571-.571c.015-.015.04-.016.058.002a.043.043 0 0 1 .003.058l-.571.57z" fill="#000" mask="url(#e)"/>
        <path d="m6.45 12.49.601-.601c.013-.013.035-.011.048.003.016.016.016.036.004.05l-.6.6c-.013.013-.034.013-.05-.003-.015-.014-.016-.037-.002-.049" fill="#FCD856" mask="url(#e)"/>
        <path d="M6.508 12.548c-.016.016-.044.015-.06-.003-.018-.017-.02-.044-.003-.06l.006.005.005.006c-.01.01-.01.026.002.038.014.013.03.013.04.003l.599-.601c.008-.01.01-.025-.004-.039-.012-.011-.028-.011-.037-.003l-.6.602-.005-.006-.006-.005.6-.602c.017-.015.043-.013.06.004.017.018.019.043.003.06l-.6.6z" fill="#000" mask="url(#e)"/>
        <path d="m6.203 12.189.546-.547c.013-.011.032-.009.046.004.014.014.016.034.004.046l-.547.546c-.01.011-.031.01-.046-.003-.012-.014-.014-.034-.003-.046" fill="#FCD856" mask="url(#e)"/>
        <path d="M6.258 12.243c-.015.015-.041.013-.057-.004-.016-.015-.018-.04-.004-.055l.006.006.005.005c-.007.007-.007.023.004.034.012.011.027.01.035.004l.547-.547c.007-.007.006-.022-.005-.034-.01-.01-.026-.011-.034-.003l-.547.546-.005-.005-.006-.006.547-.547c.016-.015.04-.012.056.004.016.017.02.04.004.056l-.546.546z" fill="#000" mask="url(#e)"/>
        <path fill="#FCD856" mask="url(#e)" d="m6.264 11.564.242.223-.152.15-.222-.242z"/>
        <path d="m6.612 12.377.333-.306-.519-.477-.276.255.462.528zm-.001.023-.484-.554.287-.287.011.01.011-.011.532.513-.357.329z" fill="#000" mask="url(#e)"/>
        <path d="m6.013 11.636.042-.043.032.031.03-.03-.03-.032.042-.043.032.031.031-.03-.03-.032.042-.044.071.071c.011.012.01.027 0 .038l-.153.153c-.01.009-.028.01-.038 0l-.07-.07z" fill="#FCD856" mask="url(#e)"/>
        <path d="M6.186 12.012c.013.014.046.012.06 0l.333-.335a.046.046 0 0 0 0-.06l-.128-.153-.098.07.069.092-.091.069-.046-.07-.093.072.067.092-.092.069-.044-.07-.08.082.143.142zm.084.022a.075.075 0 0 1-.107 0l-.155-.153.012-.011-.012-.012.115-.092.044.066.068-.042-.067-.093.117-.093.043.066.07-.044-.067-.091.12-.096.154.156c.03.03.024.078-.002.105l-.333.334z" fill="#000" mask="url(#e)"/>
        <path d="M6.28 11.743c-.023-.02.008-.052.03-.03l.055.053-.032.03-.054-.053z" fill="#000" mask="url(#e)"/>
        <path d="m6.31 11.561.042-.043.032.032.03-.032-.03-.031.041-.043.032.03.03-.029-.03-.031.044-.045.071.072c.011.01.008.027-.002.036l-.151.153c-.01.01-.029.012-.039.003l-.07-.072z" fill="#FCD856" mask="url(#e)"/>
        <path d="M6.483 11.938c.012.014.041.012.058-.004l.333-.334c.016-.016.019-.041.002-.057l-.131-.157-.096.075.068.092-.09.068-.046-.071-.093.072.069.09-.092.069-.044-.067-.081.08.143.144zm.081.021c-.028.028-.076.034-.105.004l-.155-.154.012-.014-.012-.012.118-.093.043.067.068-.044-.07-.092.119-.094.045.068.067-.042-.069-.094.121-.095.153.154c.033.034.023.08-.002.106l-.333.335z" fill="#000" mask="url(#e)"/>
        <path fill="#FCD856" mask="url(#e)" d="m6.562 11.485.127.12-.144.144-.12-.126z"/>
        <path d="m6.68 12.058.315-.291-.264-.251-.287.266.236.276zm0 .025-.26-.301.299-.301.012.012.01-.013.277.286-.338.317z" fill="#000" mask="url(#e)"/>
        <path d="m5.937 11.935.042-.042.03.03.032-.032-.031-.031.043-.042.03.03.031-.03-.031-.032.043-.043.071.072c.012.01.01.026 0 .036l-.153.152c-.008.01-.027.013-.037.002l-.07-.07z" fill="#FCD856" mask="url(#e)"/>
        <path d="M6.11 12.312c.012.012.042.01.059-.006l.332-.335a.041.041 0 0 0 .003-.054l-.133-.158-.095.073.068.093-.091.068-.044-.068-.093.068.068.093-.092.072-.045-.07-.08.08.143.144zm.082.018c-.028.028-.076.035-.104.005l-.157-.155.015-.013-.014-.01.117-.092.04.066.073-.045-.07-.093.118-.092.043.067.068-.044-.07-.092.12-.094.155.157c.03.03.025.075 0 .103l-.334.332z" fill="#000" mask="url(#e)"/>
        <path fill="#FCD856" mask="url(#e)" d="m6.188 11.86.128.118-.145.146-.12-.128z"/>
        <path d="m6.304 12.431.32-.292-.268-.25-.286.263.234.28zm0 .023-.258-.303.297-.297.013.012.011-.012.28.284-.343.316zM6.532 11.623c-.023-.021.008-.053.03-.032l.033.034-.03.031-.033-.033z" fill="#000" mask="url(#e)"/>
        <path d="M6.158 11.996c-.023-.021.009-.053.03-.03l.034.033-.031.03-.033-.033z" fill="#000" mask="url(#e)"/>
        <path fill="#FCD856" mask="url(#e)" d="m9.323 11.896.578.58.198-.25-.529-.528z"/>
        <path d="m10.052 12.679.252-.303-.66-.67-.306.246.714.727zm-.735-.72.007-.007-.006-.008.327-.251.672.682-.265.318-.735-.734z" fill="#000" mask="url(#e)"/>
        <path d="M9.813 11.979c.072.073.028.262-.058.35l-.287-.286c.092-.092.275-.134.345-.064" fill="#FCD856" mask="url(#e)"/>
        <path d="M9.463 12.037c.094-.093.279-.139.355-.063l-.01.01c-.064-.065-.245-.025-.335.053l.276.286c.084-.085.126-.273.059-.339l.011-.012c.076.081.03.27-.07.362l-.286-.297z" fill="#000" mask="url(#e)"/>
        <path d="M9.765 12.03s.044.123-.071.237c-.084-.082-.084-.082-.163-.162.115-.116.234-.076.234-.076" fill="#FCD856" mask="url(#e)"/>
        <path d="M9.55 12.202c.17.171.173.172.33.355a.512.512 0 0 0 .157-.497.528.528 0 0 0-.487.142m-.024 0c.256-.26.528-.176.53-.173l-.006.018.018-.007s.097.281-.187.54c-.183-.184-.181-.182-.355-.378" fill="#000" mask="url(#e)"/>
        <path d="m9.648 11.579.571.57a.033.033 0 0 1 0 .047c-.015.013-.037.014-.048.003l-.57-.571c-.013-.013-.012-.033.002-.047.015-.015.033-.015.045-.002" fill="#FCD856" mask="url(#e)"/>
        <path d="M9.594 11.633c-.016-.016-.013-.042.003-.058.018-.017.042-.018.057-.003l-.006.006-.005.006c-.01-.01-.022-.01-.035.002-.011.012-.011.027-.003.036l.571.572c.008.008.025.008.036-.004.011-.011.01-.027.002-.035l-.571-.571.005-.006.006-.006.57.572c.016.015.016.04-.001.057-.017.016-.042.018-.058.004l-.571-.572z" fill="#000" mask="url(#e)"/>
        <path d="m9.311 11.886.6.6c.014.014.012.036-.002.05-.016.016-.037.017-.05.004l-.6-.601c-.014-.014-.013-.035.003-.05.014-.014.036-.016.05-.003" fill="#FCD856" mask="url(#e)"/>
        <path d="M9.253 11.944c-.016-.016-.015-.043.003-.062.017-.016.044-.018.06-.002l-.005.006-.006.006c-.009-.01-.025-.01-.039.002-.012.013-.012.029-.002.039l.601.6c.01.01.025.01.038-.003.012-.012.012-.029.003-.037l-.6-.601.005-.006.006-.006.6.602c.016.015.014.043-.003.06s-.044.019-.06.003l-.601-.601z" fill="#000" mask="url(#e)"/>
        <path d="m9.612 11.64.546.547c.012.012.01.03-.004.044-.013.014-.033.016-.044.005l-.547-.547c-.011-.011-.01-.032.003-.045.015-.014.035-.015.046-.005" fill="#FCD856" mask="url(#e)"/>
        <path d="M9.557 11.694c-.014-.014-.012-.04.004-.056s.042-.018.057-.004l-.006.006-.006.006c-.007-.007-.023-.008-.033.003-.013.011-.012.027-.005.035l.547.545c.007.008.023.008.035-.004.01-.011.01-.025.003-.033l-.547-.546.006-.006.006-.006.546.547c.015.016.011.04-.005.056-.015.016-.04.02-.055.003l-.547-.546z" fill="#000" mask="url(#e)"/>
        <path fill="#FCD856" mask="url(#e)" d="m10.237 11.7-.223.243-.151-.154.243-.22z"/>
        <path d="m9.88 12.046.308.334.475-.517-.25-.277-.533.46zm-.023-.002.558-.48.283.286-.01.011.01.012-.51.531-.33-.36z" fill="#000" mask="url(#e)"/>
        <path d="m10.166 11.45.041.042-.03.031.03.03.031-.03.043.043-.03.03.03.033.031-.032.044.044-.07.07a.026.026 0 0 1-.038 0l-.151-.152c-.01-.01-.01-.028-.001-.038l.07-.07z" fill="#FCD856" mask="url(#e)"/>
        <path d="M10.125 11.624c-.013.013-.012.047.002.059l.33.334c.017.013.04.017.06 0l.155-.13-.073-.095-.091.068-.07-.093.069-.044-.07-.093-.091.067-.068-.093.068-.042-.08-.081-.141.143zm-.021.083a.076.076 0 0 1-.003-.106l.152-.157.012.012.013-.012.09.118-.065.042.043.069.09-.067.093.117-.065.044.043.069.093-.067.095.119-.154.154a.08.08 0 0 1-.107-.002l-.33-.333zM10.058 11.716c.022-.022.054.009.031.03l-.054.054-.031-.03.054-.054z" fill="#000" mask="url(#e)"/>
        <path d="m10.239 11.745.043.044-.03.03.03.031.032-.031.043.043-.032.031.031.031.031-.031.045.044-.072.071c-.011.011-.027.008-.036-.001l-.153-.153c-.01-.01-.013-.028-.003-.038l.07-.07z" fill="#FCD856" mask="url(#e)"/>
        <path d="M10.197 11.918c-.013.014-.012.043.004.059l.333.334c.017.016.04.02.058.003l.157-.133-.074-.096-.092.069-.069-.091.071-.046-.073-.093-.09.068-.068-.092.066-.043-.08-.081-.143.142zm-.019.083c-.028-.03-.033-.077-.005-.106l.154-.155.012.012.01-.012.095.117-.066.043.042.068.094-.07.093.12-.068.045.042.066.095-.07.095.124-.156.155c-.032.033-.078.022-.104-.003L10.178 12z" fill="#000" mask="url(#e)"/>
        <path fill="#FCD856" mask="url(#e)" d="m10.315 11.999-.12.127-.144-.145.127-.12z"/>
        <path d="m10.07 12.115.291.32.25-.267-.266-.288-.275.235zm-.024 0 .3-.259.3.3-.013.012.013.011-.285.28-.315-.344z" fill="#000" mask="url(#e)"/>
        <path d="m9.866 11.372.042.043-.03.03.032.032.03-.031.043.043-.031.031.031.031.032-.032.043.044-.071.071c-.012.012-.027.01-.037 0l-.153-.153c-.009-.01-.011-.028-.002-.038l.071-.07z" fill="#FCD856" mask="url(#e)"/>
        <path d="M9.822 11.545c-.01.012-.008.044.007.059l.335.334c.015.016.036.018.053.002l.158-.132-.073-.097-.09.069-.07-.09.07-.044-.07-.094-.092.068-.07-.094.066-.045-.079-.08-.145.144zm-.018.084c-.027-.03-.033-.077-.004-.107l.155-.155.012.012.012-.012.092.114-.067.043.046.072.092-.07.091.12-.065.043.043.068.091-.068.096.119-.156.156a.072.072 0 0 1-.103-.002l-.335-.333z" fill="#000" mask="url(#e)"/>
        <path fill="#FCD856" mask="url(#e)" d="m9.941 11.625-.119.127-.145-.145.128-.119z"/>
        <path d="m9.695 11.744.29.314.253-.264-.264-.288-.28.238zm-.022 0 .302-.261.299.3-.014.012.012.01-.284.279-.315-.34zM10.179 11.967c.02-.022.051.01.03.032l-.034.033-.03-.031.034-.034z" fill="#000" mask="url(#e)"/>
        <path d="M9.805 11.594c.021-.023.053.01.03.03l-.033.034-.03-.03.033-.034z" fill="#000" mask="url(#e)"/>
    </g>
</svg>
