<svg width="20" height="20" viewBox="0 0 20 20" xmlns="http://www.w3.org/2000/svg" xmlns:xlink="http://www.w3.org/1999/xlink">
    <defs>
        <filter x="-60%" y="-60%" width="220%" height="220%" id="a">
            <feOffset dy="2" in="SourceAlpha" result="shadowOffsetOuter1"/>
            <feGaussianBlur stdDeviation="2" in="shadowOffsetOuter1" result="shadowBlurOuter1"/>
            <feColorMatrix values="0 0 0 0 0 0 0 0 0 0 0 0 0 0 0 0 0 0 0.2 0" in="shadowBlurOuter1" result="shadowMatrixOuter1"/>
            <feMerge>
                <feMergeNode in="shadowMatrixOuter1"/>
                <feMergeNode in="SourceGraphic"/>
            </feMerge>
        </filter>
        <path id="b" d="M0 0h8.333v20H0z"/>
    </defs>
    <g filter="url(#a)" fill="none" fill-rule="evenodd">
        <path d="M0 10a9.998 9.998 0 0 0 5.834 9.09V.91A9.999 9.999 0 0 0 0 10" fill="#0045E6"/>
        <path d="M20 10c0-4.034-2.39-7.51-5.833-9.09v18.18A9.998 9.998 0 0 0 20 10" fill="#F21830"/>
        <g transform="translate(5.834)">
            <mask id="c" fill="#fff">
                <use xlink:href="#b"/>
            </mask>
            <path d="M4.167 0C2.677 0 1.267.328 0 .91v18.18a9.94 9.94 0 0 0 4.167.91 9.947 9.947 0 0 0 4.166-.91V.91A9.975 9.975 0 0 0 4.167 0" fill="#FFE60D" mask="url(#c)"/>
        </g>
    </g>
</svg>
