<svg width="20" height="20" viewBox="0 0 20 20" xmlns="http://www.w3.org/2000/svg">
    <defs>
        <filter x="-60%" y="-60%" width="220%" height="220%" id="a">
            <feOffset dy="2" in="SourceAlpha" result="shadowOffsetOuter1"/>
            <feGaussianBlur stdDeviation="2" in="shadowOffsetOuter1" result="shadowBlurOuter1"/>
            <feColorMatrix values="0 0 0 0 0 0 0 0 0 0 0 0 0 0 0 0 0 0 0.2 0" in="shadowBlurOuter1" result="shadowMatrixOuter1"/>
            <feMerge>
                <feMergeNode in="shadowMatrixOuter1"/>
                <feMergeNode in="SourceGraphic"/>
            </feMerge>
        </filter>
    </defs>
    <g filter="url(#a)" fill="none" fill-rule="evenodd">
        <path d="M10 20a9.998 9.998 0 0 0 9.088-5.834H.91C2.49 17.608 5.965 20 10 20" fill="#1F4085"/>
        <path d="M10 0C5.964 0 2.49 2.392.91 5.833h18.178A9.998 9.998 0 0 0 10 0" fill="#A20E23"/>
        <path d="M0 10c0 1.487.327 2.897.91 4.166h18.178A9.95 9.95 0 0 0 20 10a9.953 9.953 0 0 0-.91-4.167H.908A9.96 9.96 0 0 0 0 10" fill="#FAFAFA"/>
    </g>
</svg>
