<?xml version="1.0" encoding="UTF-8"?>
<svg width="20px" height="20px" viewBox="0 0 20 20" version="1.1" xmlns="http://www.w3.org/2000/svg" xmlns:xlink="http://www.w3.org/1999/xlink">
    <title>Flags / UAE@1x</title>
    <g id="Flags-/-UAE" stroke="none" stroke-width="1" fill="none" fill-rule="evenodd">
        <g id="Group-9" transform="translate(0.000000, 0.000000)">
            <path d="M10.0001372,19.9998628 C14.0352691,19.9998628 17.5100295,17.6092496 19.0900483,14.1660529 L0.909768761,14.1660529 C2.49024496,17.6092496 5.96546282,19.9998628 10.0001372,19.9998628" id="Fill-1" fill="#000000"></path>
            <path d="M10.0001372,0 C5.96546282,0 2.49024496,2.39198554 0.909768761,5.83335239 L19.0900483,5.83335239 C17.5100295,2.39198554 14.0352691,0 10.0001372,0" id="Fill-3" fill="#009A00"></path>
            <path d="M0,9.99995426 C0,11.4875689 0.327073946,12.8987901 0.90986025,14.1659157 L19.0901397,14.1659157 C19.6729261,12.8987901 20,11.4875689 20,9.99995426 C20,8.51233961 19.6729261,7.10203335 19.0901397,5.83353537 L0.90986025,5.83353537 C0.327073946,7.10203335 0,8.51233961 0,9.99995426" id="Fill-5" fill="#FFFFFF"></path>
            <path d="M0,9.99995426 C0,14.0350861 2.39244299,17.510304 5.83335239,19.0903227 L5.83335239,0.909585783 C2.39244299,2.49006198 0,5.9639075 0,9.99995426" id="Fill-7" fill="#CE1126"></path>
        </g>
    </g>
</svg>