<svg width="206" height="46" viewBox="0 0 206 46" xmlns="http://www.w3.org/2000/svg">
    <g fill="none" fill-rule="evenodd">
        <path d="M197.562 27.177c4.507 0 7.988-3.639 8.032-7.951-.313-1.884-.977-5.368-5.914-5.368-5.397 0-7.186 7.472-11.583 12.286-.354 2.74-2.968 5.191-6.24 5.604.803.83 2.583 1.277 4.71 1.277 3.89 0 8.603-1.16 11.069-3.57-3.291.041-5.408-2.051-5.615-4.954 1.606 1.926 3.418 2.676 5.541 2.676" fill="#17ABDA"/>
        <path d="M84.85 13.703c1.379 0 2.169 1.254 2.031 3.058-.16 2.118-1.716 4.539-4.42 6.447-1.417-3.983-.364-9.505 2.39-9.505M66.44 42.451c-1.415 0-2.162-1.329-2.162-2.836 0-4.057 3.005-6.21 6.712-8.058-.169 8.868-2.25 10.894-4.55 10.894m96.503-27.16c0-2.373-.143-3.958-1.711-3.958-.713 0-1.062.137-1.688.345.554 8.023-1.277 15.086-3.51 15.086-2.928 0-1.466-17.193-7.673-17.193-5.72 0-6.542 13.725-7.192 13.725-.444 0-.509-3.604-.488-6.351.243-1.317.37-2.5.37-3.399 0-1.277-.525-3.489-3.453-2.383.103 9.813-1.882 15.747-4.116 15.747-3.276 0-3.312-8.899-3.312-11.353 0-2.395.173-5.595-3.419-4.455-.538 8.562-2.8 15.022-4.227 15.022-2.132 0-1.704-14.789-6.31-14.789-4.136 0-5.417 14.006-6.28 14.006-1.544 0 .481-15.77-5.495-15.77-3.135 0-4.38 5.267-5.61 11.159-.237 1.144-.488 1.177-.529-.111a82.793 82.793 0 0 1-.028-3.302c1.51-5.923-.334-8.112-3.103-6.533.893 10.932-4.172 16.275-8.059 16.275-1.407 0-2.509-.592-3.335-1.528 4.66-2.828 6.733-6.08 6.733-9.252 0-3.442-1.994-5.423-5.308-5.423-4.624 0-7.21 4.717-7.21 8.723 0 2.157.404 3.99 1.077 5.5-1.59.752-3.088 1.4-4.481 2.03-.119-4.123-.591-8.455-.95-12.45-2.458-.669-3.178.502-3.367 2.674-.438 4.949-2.29 8.022-3.926 8.022-1.233 0-1.984-1.484-2.074-3.064-.457-7.935 6.046-10.142 9.449-8.993.705-1.747-.07-3.01-3.14-3.01-3.72 0-6.502 2.24-8.542 5.113-1.36 1.916-2.934 3.276-5.025 4.92.053-.475.081-.947.081-1.411 0-5.598-3.059-8.054-5.983-8.054-2.418 0-3.94 1.44-4.819 3.64-.219-2.207-.663-3.16-1.96-3.16-.557 0-1.325.155-2.155.551.379 1.235.528 3.968.528 5.768 0 6.73-1.948 9.746-3.818 9.746-2.143 0-2.483-7.98-2.662-11.087a2.95 2.95 0 0 0-1.049-.192c-1.936 0-2.187 2.576-2.665 4.946-.53 2.622-2.058 5.924-4.318 5.924-1.364 0-2.216-1.305-2.324-3.65-.222-4.758 3.773-10.396 10.028-8.644.819-1.894-.467-3.337-3.062-3.337-4.57 0-8.35 3.39-9.997 7.4-1.674 3.674-4.602 9.073-10.559 9.073-4.207 0-7.426-3.63-7.426-11.256 0-6.574 4.184-12.818 8.647-12.818 3.124 0 3.847 3.042 3.572 5.897 1.615 1.288 4.27.093 4.27-3.122 0-2.214-1.816-5.97-7.676-5.97C6.41.566 0 7.73 0 17.146c0 9.117 4.673 14.503 11.283 14.503 4.173 0 8.11-2.356 10.828-6.709.681 3.81 3.3 5.412 5.265 5.412 3.179 0 5.254-2.036 6.388-4.796.709 2.765 2.202 4.807 4.68 4.807 1.746 0 3.109-.875 4.135-2.282-.405 9.607-.92 15.73 4.81 14.524-.883-2.73-1.168-7.703-1.168-12.165 0-12.216 2.034-16.237 4.586-16.237 1.845 0 2.444 2.334 2.444 4.821 0 1.333-.129 2.863-.469 4.247-3.138 1.956-5.638 3.5-5.638 5.466 0 1.552 1.161 1.697 2.168 1.697 2.41 0 5.304-2.339 6.904-6.752 1.4-.838 2.803-1.8 4.144-3.108-.046.448-.07.9-.07 1.357 0 4.383 1.936 7.028 5.025 7.028 2.42 0 4.238-1.7 5.52-4.248.082 1.468.132 2.82.151 4.064-4.91 2.248-10.345 4.535-10.345 10.879 0 3.284 2.393 5.758 5.512 5.758 6.842 0 8.403-7.154 8.466-15.463 2.226-.957 3.886-1.694 5.802-2.632 1.636 2.03 3.861 3.046 5.903 3.046 3.86 0 6.76-2.025 9.089-6.137.412 3.13 1.232 6.137 2.91 6.137 3.062 0 3.68-15.852 5.958-15.852 1.743 0 .31 17.152 4.913 17.152 3.942 0 4.681-15.093 6.6-15.093 1.36 0 1.464 13.795 5.753 13.795 2.113 0 4.404-2.51 5.55-7.776.537 3.503 2.322 7.776 5.81 7.776 2.036 0 3.787-2.039 5.135-4.749.373 2.79 1.171 4.75 2.71 4.75 4.01 0 3.877-15.819 7.051-15.819 2.475 0 1.709 15.818 7.603 15.818 2.807 0 4.134-2.367 4.925-5.337 1.085 4.37 2.838 5.337 4.278 5.337.912 0 1.603-.316 2.507-1.386-4.558-1.959-4.174-9.086-4.174-13.687M128.518 7.709c1.314-.045 2.231-1.16 2.236-2.49.007-1.33-.901-2.373-2.216-2.327-1.314.045-2.384 1.16-2.39 2.49-.007 1.33 1.055 2.371 2.37 2.327M161.182 8.383c1.196-.043 2.172-1.104 2.174-2.372.008-1.267-.96-2.26-2.155-2.216-1.198.043-2.172 1.105-2.178 2.372-.007 1.266.961 2.26 2.159 2.216M205.587 18.91c-.098-5.012-2.507-9.245-6.218-12.62-2.82-2.552-6.17-4.485-9.683-5.945-.28-.118-.565-.233-.851-.343 0 0-.003 0-.003-.002-4.322 5.133-19.295 8.963-19.295 19.718 0 4.206 2.683 8.137 6.62 9.715 2.281.854 4.564.901 6.85.14 2.03-.66 3.701-1.906 5.09-3.43 4.397-4.813 6.187-12.283 11.583-12.283 4.936 0 5.602 3.483 5.916 5.366 0-.005-.003-.135-.01-.317" fill="#0070AD"/>
    </g>
</svg>
